<?xml version="1.0" standalone="yes"?>

<svg version="1.1" viewBox="0.0 0.0 1024.0 768.0" fill="none" stroke="none" stroke-linecap="square" stroke-miterlimit="10" clip-path="url(#p.0)" xmlns="http://www.w3.org/2000/svg" xmlns:xlink="http://www.w3.org/1999/xlink"><clipPath id="p.0"><path d="m0 0l1024.0 0l0 768.0l-1024.0 0l0 -768.0z" clip-rule="nonzero"></path></clipPath><path fill="#cfe2f3" stroke="#000000" stroke-width="2.0" stroke-linejoin="round" stroke-linecap="butt" d="m128.0 184.0c0 -13.254837 30.444641 -24.0 68.0 -24.0l0 0c37.55536 0 68.0 10.745163 68.0 24.0l0 0c0 13.254837 -30.444641 24.0 -68.0 24.0l0 0c-37.55536 0 -68.0 -10.745163 -68.0 -24.0z" fill-rule="nonzero"></path><path fill="#000000" d="m176.8041 185.99219l1.296875 0.15625q-0.203125 1.34375 -1.0859375 2.1015625q-0.8828125 0.7578125 -2.1484375 0.7578125q-1.59375 0 -2.5625 -1.0390625q-0.96875 -1.0390625 -0.96875 -2.9921875q0 -1.265625 0.4140625 -2.2109375q0.4140625 -0.9453125 1.265625 -1.4140625q0.8515625 -0.46875 1.8515625 -0.46875q1.265625 0 2.078125 0.640625q0.8125 0.640625 1.03125 1.8125l-1.28125 0.203125q-0.1875 -0.78125 -0.6484375 -1.1796875q-0.4609375 -0.3984375 -1.1171875 -0.3984375q-1.0 0 -1.625 0.71875q-0.625 0.71875 -0.625 2.265625q0 1.5625 0.6015625 2.2734375q0.6015625 0.7109375 1.5703125 0.7109375q0.78125 0 1.296875 -0.4765625q0.515625 -0.4765625 0.65625 -1.4609375zm1.765625 -1.046875q0 -2.15625 1.203125 -3.203125q1.0 -0.859375 2.4375 -0.859375q1.609375 0 2.625 1.046875q1.015625 1.046875 1.015625 2.90625q0 1.5 -0.4453125 2.359375q-0.4453125 0.859375 -1.3125 1.3359375q-0.8671875 0.4765625 -1.8828125 0.4765625q-1.625 0 -2.6328125 -1.046875q-1.0078125 -1.046875 -1.0078125 -3.015625zm1.359375 0q0 1.5 0.6484375 2.2421875q0.6484375 0.7421875 1.6328125 0.7421875q0.984375 0 1.640625 -0.75q0.65625 -0.75 0.65625 -2.28125q0 -1.4375 -0.65625 -2.1796875q-0.65625 -0.7421875 -1.640625 -0.7421875q-0.984375 0 -1.6328125 0.734375q-0.6484375 0.734375 -0.6484375 2.234375zm7.276108 6.875l0 -10.765625l1.203125 0l0 1.015625q0.421875 -0.59375 0.9609375 -0.890625q0.5390625 -0.296875 1.3046875 -0.296875q0.984375 0 1.75 0.515625q0.765625 0.515625 1.1484375 1.4453125q0.3828125 0.9296875 0.3828125 2.0390625q0 1.203125 -0.421875 2.15625q-0.421875 0.953125 -1.2421875 1.4609375q-0.8203125 0.5078125 -1.7265625 0.5078125q-0.65625 0 -1.1796875 -0.2734375q-0.5234375 -0.2734375 -0.8515625 -0.7109375l0 3.796875l-1.328125 0zm1.203125 -6.828125q0 1.5 0.609375 2.21875q0.609375 0.71875 1.46875 0.71875q0.875 0 1.5 -0.7421875q0.625 -0.7421875 0.625 -2.3046875q0 -1.484375 -0.609375 -2.2265625q-0.609375 -0.7421875 -1.453125 -0.7421875q-0.84375 0 -1.4921875 0.7890625q-0.6484375 0.7890625 -0.6484375 2.2890625zm6.901108 6.84375l-0.15625 -1.234375q0.4375 0.109375 0.75 0.109375q0.453125 0 0.7109375 -0.1484375q0.2578125 -0.1484375 0.4296875 -0.4140625q0.125 -0.1875 0.40625 -0.96875q0.03125 -0.109375 0.109375 -0.328125l-2.953125 -7.796875l1.421875 0l1.625 4.5q0.3125 0.859375 0.5625 1.8125q0.234375 -0.90625 0.546875 -1.78125l1.65625 -4.53125l1.328125 0l-2.96875 7.90625q-0.46875 1.28125 -0.734375 1.765625q-0.359375 0.65625 -0.8125 0.9609375q-0.453125 0.3046875 -1.078125 0.3046875q-0.375 0 -0.84375 -0.15625zm7.390625 -12.21875l0 -1.515625l1.3125 0l0 1.515625l-1.3125 0zm0 9.21875l0 -7.78125l1.3125 0l0 7.78125l-1.3125 0zm3.2405243 0l0 -7.78125l1.1875 0l0 1.109375q0.859375 -1.28125 2.484375 -1.28125q0.703125 0 1.2890625 0.25q0.5859375 0.25 0.8828125 0.6640625q0.29685974 0.4140625 0.40623474 0.9765625q0.078125 0.359375 0.078125 1.28125l0 4.78125l-1.3281097 0l0 -4.734375q0 -0.796875 -0.1484375 -1.1953125q-0.1484375 -0.3984375 -0.5390625 -0.640625q-0.390625 -0.2421875 -0.921875 -0.2421875q-0.84375 0 -1.453125 0.53125q-0.609375 0.53125 -0.609375 2.03125l0 4.25l-1.328125 0zm7.9167175 0.640625l1.28125 0.1875q0.078125 0.59375 0.4375 0.875q0.5 0.359375 1.34375 0.359375q0.921875 0 1.421875 -0.3671875q0.5 -0.3671875 0.671875 -1.0234375q0.09375 -0.40625 0.09375 -1.6875q-0.859375 1.015625 -2.15625 1.015625q-1.609375 0 -2.484375 -1.15625q-0.875 -1.15625 -0.875 -2.78125q0 -1.109375 0.40625 -2.046875q0.40625 -0.9375 1.1640625 -1.453125q0.7578125 -0.515625 1.8046875 -0.515625q1.375 0 2.265625 1.109375l0 -0.9375l1.21875 0l0 6.71875q0 1.828125 -0.375 2.5859375q-0.375 0.7578125 -1.171875 1.1953125q-0.796875 0.4375 -1.96875 0.4375q-1.390625 0 -2.25 -0.625q-0.859375 -0.625 -0.828125 -1.890625zm1.09375 -4.671875q0 1.53125 0.6015625 2.234375q0.6015625 0.703125 1.5234375 0.703125q0.90625 0 1.5234375 -0.6953125q0.6171875 -0.6953125 0.6171875 -2.1953125q0 -1.421875 -0.6328125 -2.1484375q-0.6328125 -0.7265625 -1.5234375 -0.7265625q-0.890625 0 -1.5 0.7109375q-0.609375 0.7109375 -0.609375 2.1171875z" fill-rule="nonzero"></path><path fill="#cfe2f3" stroke="#000000" stroke-width="2.0" stroke-linejoin="round" stroke-linecap="butt" d="m344.0 184.0c0 -13.254837 30.444641 -24.0 68.0 -24.0l0 0c37.55536 0 68.0 10.745163 68.0 24.0l0 0c0 13.254837 -30.444641 24.0 -68.0 24.0l0 0c-37.55536 0 -68.0 -10.745163 -68.0 -24.0z" fill-rule="nonzero"></path><path fill="#000000" d="m381.4245 188.83594l0 -1.140625q-0.921875 1.3125 -2.46875 1.3125q-0.6875 0 -1.2890625 -0.265625q-0.6015625 -0.265625 -0.890625 -0.6640625q-0.2890625 -0.3984375 -0.3984375 -0.9765625q-0.09375 -0.375 -0.09375 -1.21875l0 -4.828125l1.328125 0l0 4.3125q0 1.03125 0.078125 1.390625q0.125 0.53125 0.5234375 0.828125q0.3984375 0.296875 0.9921875 0.296875q0.59375 0 1.1171875 -0.3046875q0.5234375 -0.3046875 0.7421875 -0.828125q0.21875 -0.5234375 0.21875 -1.5234375l0 -4.171875l1.3125 0l0 7.78125l-1.171875 0zm3.041748 0l0 -7.78125l1.1875 0l0 1.109375q0.859375 -1.28125 2.484375 -1.28125q0.703125 0 1.2890625 0.25q0.5859375 0.25 0.8828125 0.6640625q0.296875 0.4140625 0.40625 0.9765625q0.078125 0.359375 0.078125 1.28125l0 4.78125l-1.328125 0l0 -4.734375q0 -0.796875 -0.1484375 -1.1953125q-0.1484375 -0.3984375 -0.5390625 -0.640625q-0.390625 -0.2421875 -0.921875 -0.2421875q-0.84375 0 -1.453125 0.53125q-0.609375 0.53125 -0.609375 2.03125l0 4.25l-1.328125 0zm8.151093 0l0 -7.78125l1.1875 0l0 1.09375q0.359375 -0.578125 0.96875 -0.921875q0.609375 -0.34375 1.390625 -0.34375q0.859375 0 1.4140625 0.359375q0.5546875 0.359375 0.7734375 1.0q0.921875 -1.359375 2.40625 -1.359375q1.15625 0 1.78125 0.640625q0.625 0.640625 0.625 1.96875l0 5.34375l-1.3125 0l0 -4.90625q0 -0.78125 -0.125 -1.1328125q-0.125 -0.3515625 -0.46875 -0.5625q-0.34375 -0.2109375 -0.796875 -0.2109375q-0.8125 0 -1.359375 0.546875q-0.546875 0.546875 -0.546875 1.75l0 4.515625l-1.3125 0l0 -5.046875q0 -0.890625 -0.3203125 -1.328125q-0.3203125 -0.4375 -1.0546875 -0.4375q-0.5625 0 -1.03125 0.296875q-0.46875 0.296875 -0.6796875 0.859375q-0.2109375 0.5625 -0.2109375 1.625l0 4.03125l-1.328125 0zm11.724396 -3.890625q0 -2.15625 1.203125 -3.203125q1.0 -0.859375 2.4375 -0.859375q1.609375 0 2.625 1.046875q1.015625 1.046875 1.015625 2.90625q0 1.5 -0.4453125 2.359375q-0.4453125 0.859375 -1.3125 1.3359375q-0.8671875 0.4765625 -1.8828125 0.4765625q-1.625 0 -2.6328125 -1.046875q-1.0078125 -1.046875 -1.0078125 -3.015625zm1.359375 0q0 1.5 0.6484375 2.2421875q0.6484375 0.7421875 1.6328125 0.7421875q0.984375 0 1.640625 -0.75q0.65625 -0.75 0.65625 -2.28125q0 -1.4375 -0.65625 -2.1796875q-0.65625 -0.7421875 -1.640625 -0.7421875q-0.984375 0 -1.6328125 0.734375q-0.6484375 0.734375 -0.6484375 2.234375zm12.385498 3.890625l0 -1.140625q-0.921875 1.3125 -2.46875 1.3125q-0.6875 0 -1.2890625 -0.265625q-0.6015625 -0.265625 -0.890625 -0.6640625q-0.2890625 -0.3984375 -0.3984375 -0.9765625q-0.09375 -0.375 -0.09375 -1.21875l0 -4.828125l1.328125 0l0 4.3125q0 1.03125 0.078125 1.390625q0.125 0.53125 0.5234375 0.828125q0.3984375 0.296875 0.9921875 0.296875q0.59375 0 1.1171875 -0.3046875q0.5234375 -0.3046875 0.7421875 -0.828125q0.21875 -0.5234375 0.21875 -1.5234375l0 -4.171875l1.3125 0l0 7.78125l-1.171875 0zm3.0417175 0l0 -7.78125l1.1875 0l0 1.109375q0.859375 -1.28125 2.484375 -1.28125q0.703125 0 1.2890625 0.25q0.5859375 0.25 0.8828125 0.6640625q0.296875 0.4140625 0.40625 0.9765625q0.078125 0.359375 0.078125 1.28125l0 4.78125l-1.328125 0l0 -4.734375q0 -0.796875 -0.1484375 -1.1953125q-0.1484375 -0.3984375 -0.5390625 -0.640625q-0.390625 -0.2421875 -0.921875 -0.2421875q-0.84375 0 -1.453125 0.53125q-0.609375 0.53125 -0.609375 2.03125l0 4.25l-1.328125 0zm11.041748 -1.171875l0.1875 1.15625q-0.5625 0.125 -1.0 0.125q-0.71875 0 -1.1171875 -0.234375q-0.3984375 -0.234375 -0.5546875 -0.6015625q-0.15625 -0.3671875 -0.15625 -1.5546875l0 -4.46875l-0.96875 0l0 -1.03125l0.96875 0l0 -1.921875l1.3125 -0.796875l0 2.71875l1.328125 0l0 1.03125l-1.328125 0l0 4.546875q0 0.5625 0.0703125 0.7265625q0.0703125 0.1640625 0.2265625 0.2578125q0.15625 0.09375 0.4375 0.09375q0.234375 0 0.59375 -0.046875zm6.5094604 -1.328125l1.359375 0.15625q-0.3125 1.203125 -1.1875 1.859375q-0.875 0.65625 -2.234375 0.65625q-1.703125 0 -2.703125 -1.046875q-1.0 -1.046875 -1.0 -2.953125q0 -1.953125 1.015625 -3.0390625q1.015625 -1.0859375 2.625 -1.0859375q1.5625 0 2.546875 1.0625q0.984375 1.0625 0.984375 2.984375q0 0.125 0 0.359375l-5.8125 0q0.078125 1.28125 0.7265625 1.9609375q0.6484375 0.6796875 1.6328125 0.6796875q0.71875 0 1.234375 -0.3828125q0.515625 -0.3828125 0.8125 -1.2109375zm-4.328125 -2.140625l4.34375 0q-0.09375 -0.984375 -0.5 -1.46875q-0.625 -0.765625 -1.625 -0.765625q-0.921875 0 -1.5390625 0.609375q-0.6171875 0.609375 -0.6796875 1.625zm12.197998 4.640625l0 -0.984375q-0.734375 1.15625 -2.171875 1.15625q-0.921875 0 -1.703125 -0.5078125q-0.78125 -0.5078125 -1.2109375 -1.4296875q-0.4296875 -0.921875 -0.4296875 -2.109375q0 -1.171875 0.390625 -2.1171875q0.390625 -0.9453125 1.1640625 -1.453125q0.7734375 -0.5078125 1.7265625 -0.5078125q0.703125 0 1.2578125 0.296875q0.5546875 0.296875 0.8984375 0.765625l0 -3.84375l1.3125 0l0 10.734375l-1.234375 0zm-4.15625 -3.875q0 1.484375 0.625 2.2265625q0.625 0.7421875 1.484375 0.7421875q0.859375 0 1.46875 -0.7109375q0.609375 -0.7109375 0.609375 -2.1484375q0 -1.609375 -0.6171875 -2.3515625q-0.6171875 -0.7421875 -1.5234375 -0.7421875q-0.875 0 -1.4609375 0.71875q-0.5859375 0.71875 -0.5859375 2.265625z" fill-rule="nonzero"></path><path fill="#cfe2f3" stroke="#000000" stroke-width="2.0" stroke-linejoin="round" stroke-linecap="butt" d="m344.0 312.0c0 -13.254822 30.444641 -24.0 68.0 -24.0l0 0c37.55536 0 68.0 10.745178 68.0 24.0l0 0c0 13.254822 -30.444641 24.0 -68.0 24.0l0 0c-37.55536 0 -68.0 -10.745178 -68.0 -24.0z" fill-rule="nonzero"></path><path fill="#000000" d="m381.0166 316.83594l0 -1.140625q-0.921875 1.3125 -2.46875 1.3125q-0.6875 0 -1.2890625 -0.265625q-0.6015625 -0.265625 -0.890625 -0.6640625q-0.2890625 -0.3984375 -0.3984375 -0.9765625q-0.09375 -0.375 -0.09375 -1.21875l0 -4.828125l1.328125 0l0 4.3125q0 1.03125 0.078125 1.390625q0.125 0.53125 0.5234375 0.828125q0.3984375 0.296875 0.9921875 0.296875q0.59375 0 1.1171875 -0.3046875q0.5234375 -0.3046875 0.7421875 -0.828125q0.21875 -0.5234375 0.21875 -1.5234375l0 -4.171875l1.3125 0l0 7.78125l-1.171875 0zm3.0417175 0l0 -7.78125l1.1875 0l0 1.109375q0.859375 -1.28125 2.484375 -1.28125q0.703125 0 1.2890625 0.25q0.5859375 0.25 0.8828125 0.6640625q0.296875 0.4140625 0.40625 0.9765625q0.078125 0.359375 0.078125 1.28125l0 4.78125l-1.328125 0l0 -4.734375q0 -0.796875 -0.1484375 -1.1953125q-0.1484375 -0.3984375 -0.5390625 -0.640625q-0.390625 -0.2421875 -0.921875 -0.2421875q-0.84375 0 -1.453125 0.53125q-0.609375 0.53125 -0.609375 2.03125l0 4.25l-1.328125 0zm13.229248 -0.953125q-0.734375 0.609375 -1.40625 0.8671875q-0.671875 0.2578125 -1.453125 0.2578125q-1.28125 0 -1.96875 -0.625q-0.6875 -0.625 -0.6875 -1.59375q0 -0.578125 0.2578125 -1.046875q0.2578125 -0.46875 0.6796875 -0.7578125q0.421875 -0.2890625 0.953125 -0.4296875q0.375 -0.109375 1.171875 -0.203125q1.59375 -0.1875 2.34375 -0.453125q0.015625 -0.265625 0.015625 -0.34375q0 -0.8125 -0.375 -1.140625q-0.515625 -0.4375 -1.5 -0.4375q-0.9375 0 -1.3828125 0.3203125q-0.4453125 0.3203125 -0.6484375 1.1484375l-1.296875 -0.171875q0.171875 -0.828125 0.578125 -1.3359375q0.40625 -0.5078125 1.171875 -0.78125q0.765625 -0.2734375 1.765625 -0.2734375q1.0 0 1.6171875 0.234375q0.6171875 0.234375 0.9140625 0.5859375q0.296875 0.3515625 0.40625 0.8984375q0.0625 0.34375 0.0625 1.21875l0 1.75q0 1.84375 0.0859375 2.328125q0.0859375 0.484375 0.3359375 0.9375l-1.375 0q-0.203125 -0.40625 -0.265625 -0.953125zm-0.109375 -2.953125q-0.71875 0.296875 -2.15625 0.5q-0.8125 0.125 -1.1484375 0.265625q-0.3359375 0.140625 -0.515625 0.421875q-0.1796875 0.28125 -0.1796875 0.625q0 0.53125 0.3984375 0.8828125q0.3984375 0.3515625 1.1640625 0.3515625q0.765625 0 1.359375 -0.3359375q0.59375 -0.3359375 0.875 -0.9140625q0.203125 -0.4375 0.203125 -1.3125l0 -0.484375zm5.3542175 3.90625l-2.96875 -7.78125l1.390625 0l1.671875 4.65625q0.265625 0.765625 0.5 1.578125q0.171875 -0.625 0.484375 -1.484375l1.734375 -4.75l1.359375 0l-2.953125 7.78125l-1.21875 0zm10.234375 -0.953125q-0.734375 0.609375 -1.40625 0.8671875q-0.671875 0.2578125 -1.453125 0.2578125q-1.28125 0 -1.96875 -0.625q-0.6875 -0.625 -0.6875 -1.59375q0 -0.578125 0.2578125 -1.046875q0.2578125 -0.46875 0.6796875 -0.7578125q0.421875 -0.2890625 0.953125 -0.4296875q0.375 -0.109375 1.171875 -0.203125q1.59375 -0.1875 2.34375 -0.453125q0.015625 -0.265625 0.015625 -0.34375q0 -0.8125 -0.375 -1.140625q-0.515625 -0.4375 -1.5 -0.4375q-0.9375 0 -1.3828125 0.3203125q-0.4453125 0.3203125 -0.6484375 1.1484375l-1.296875 -0.171875q0.171875 -0.828125 0.578125 -1.3359375q0.40625 -0.5078125 1.171875 -0.78125q0.765625 -0.2734375 1.765625 -0.2734375q1.0 0 1.6171875 0.234375q0.6171875 0.234375 0.9140625 0.5859375q0.296875 0.3515625 0.40625 0.8984375q0.0625 0.34375 0.0625 1.21875l0 1.75q0 1.84375 0.0859375 2.328125q0.0859375 0.484375 0.3359375 0.9375l-1.375 0q-0.203125 -0.40625 -0.265625 -0.953125zm-0.109375 -2.953125q-0.71875 0.296875 -2.15625 0.5q-0.8125 0.125 -1.1484375 0.265625q-0.3359375 0.140625 -0.515625 0.421875q-0.1796875 0.28125 -0.1796875 0.625q0 0.53125 0.3984375 0.8828125q0.3984375 0.3515625 1.1640625 0.3515625q0.765625 0 1.359375 -0.3359375q0.59375 -0.3359375 0.875 -0.9140625q0.203125 -0.4375 0.203125 -1.3125l0 -0.484375zm3.197998 -5.3125l0 -1.515625l1.3125 0l0 1.515625l-1.3125 0zm0 9.21875l0 -7.78125l1.3125 0l0 7.78125l-1.3125 0zm3.209259 0l0 -10.734375l1.328125 0l0 10.734375l-1.328125 0zm8.36554 -0.953125q-0.734375 0.609375 -1.40625 0.8671875q-0.671875 0.2578125 -1.453125 0.2578125q-1.28125 0 -1.96875 -0.625q-0.6875 -0.625 -0.6875 -1.59375q0 -0.578125 0.2578125 -1.046875q0.2578125 -0.46875 0.6796875 -0.7578125q0.421875 -0.2890625 0.953125 -0.4296875q0.375 -0.109375 1.171875 -0.203125q1.59375 -0.1875 2.34375 -0.453125q0.015625 -0.265625 0.015625 -0.34375q0 -0.8125 -0.375 -1.140625q-0.515625 -0.4375 -1.5 -0.4375q-0.9375 0 -1.3828125 0.3203125q-0.4453125 0.3203125 -0.6484375 1.1484375l-1.296875 -0.171875q0.171875 -0.828125 0.578125 -1.3359375q0.40625 -0.5078125 1.171875 -0.78125q0.765625 -0.2734375 1.765625 -0.2734375q1.0 0 1.6171875 0.234375q0.6171875 0.234375 0.9140625 0.5859375q0.296875 0.3515625 0.40625 0.8984375q0.0625 0.34375 0.0625 1.21875l0 1.75q0 1.84375 0.0859375 2.328125q0.0859375 0.484375 0.3359375 0.9375l-1.375 0q-0.203125 -0.40625 -0.265625 -0.953125zm-0.109375 -2.953125q-0.71875 0.296875 -2.15625 0.5q-0.8125 0.125 -1.1484375 0.265625q-0.3359375 0.140625 -0.515625 0.421875q-0.1796875 0.28125 -0.1796875 0.625q0 0.53125 0.3984375 0.8828125q0.3984375 0.3515625 1.1640625 0.3515625q0.765625 0 1.359375 -0.3359375q0.59375 -0.3359375 0.875 -0.9140625q0.203125 -0.4375 0.203125 -1.3125l0 -0.484375zm4.4010925 3.90625l-1.21875 0l0 -10.734375l1.3125 0l0 3.828125q0.84375 -1.046875 2.140625 -1.046875q0.71875 0 1.359375 0.2890625q0.640625 0.2890625 1.0546875 0.8125q0.4140625 0.5234375 0.6484375 1.265625q0.234375 0.7421875 0.234375 1.5859375q0 2.0 -0.9921875 3.0859375q-0.9921875 1.0859375 -2.3828125 1.0859375q-1.375 0 -2.15625 -1.140625l0 0.96875zm-0.015625 -3.953125q0 1.40625 0.390625 2.03125q0.609375 1.015625 1.671875 1.015625q0.875 0 1.5 -0.75q0.625 -0.75 0.625 -2.234375q0 -1.53125 -0.6015625 -2.2578125q-0.6015625 -0.7265625 -1.4609375 -0.7265625q-0.859375 0 -1.4921875 0.75q-0.6328125 0.75 -0.6328125 2.171875zm6.916748 3.953125l0 -10.734375l1.328125 0l0 10.734375l-1.328125 0zm8.615509 -2.5l1.359375 0.15625q-0.3125 1.203125 -1.1875 1.859375q-0.875 0.65625 -2.234375 0.65625q-1.703125 0 -2.703125 -1.046875q-1.0 -1.046875 -1.0 -2.953125q0 -1.953125 1.015625 -3.0390625q1.015625 -1.0859375 2.625 -1.0859375q1.5625 0 2.546875 1.0625q0.984375 1.0625 0.984375 2.984375q0 0.125 0 0.359375l-5.8125 0q0.078125 1.28125 0.7265625 1.9609375q0.6484375 0.6796875 1.6328125 0.6796875q0.71875 0 1.234375 -0.3828125q0.515625 -0.3828125 0.8125 -1.2109375zm-4.328125 -2.140625l4.34375 0q-0.09375 -0.984375 -0.5 -1.46875q-0.625 -0.765625 -1.625 -0.765625q-0.921875 0 -1.5390625 0.609375q-0.6171875 0.609375 -0.6796875 1.625z" fill-rule="nonzero"></path><path fill="#cfe2f3" stroke="#000000" stroke-width="2.0" stroke-linejoin="round" stroke-linecap="butt" d="m544.0 248.0c0 -13.254837 30.444641 -24.0 68.0 -24.0l0 0c37.55536 0 68.0 10.745163 68.0 24.0l0 0c0 13.254822 -30.444641 24.0 -68.0 24.0l0 0c-37.55536 0 -68.0 -10.745178 -68.0 -24.0z" fill-rule="nonzero"></path><path fill="#000000" d="m584.46625 252.83594l0 -7.78125l1.1875 0l0 1.09375q0.359375 -0.578125 0.96875 -0.921875q0.609375 -0.34375 1.390625 -0.34375q0.859375 0 1.4140625 0.359375q0.5546875 0.359375 0.7734375 1.0q0.921875 -1.359375 2.40625 -1.359375q1.15625 0 1.78125 0.640625q0.625 0.640625 0.625 1.96875l0 5.34375l-1.3125 0l0 -4.90625q0 -0.78125 -0.125 -1.1328125q-0.125 -0.3515625 -0.46875 -0.5625q-0.34375 -0.2109375 -0.796875 -0.2109375q-0.8125 0 -1.359375 0.546875q-0.546875 0.546875 -0.546875 1.75l0 4.515625l-1.3125 0l0 -5.046875q0 -0.890625 -0.3203125 -1.328125q-0.3203125 -0.4375 -1.0546875 -0.4375q-0.5625 0 -1.03125 0.296875q-0.46875 0.296875 -0.6796875 0.859375q-0.2109375 0.5625 -0.2109375 1.625l0 4.03125l-1.328125 0zm11.724365 -3.890625q0 -2.15625 1.203125 -3.203125q1.0 -0.859375 2.4375 -0.859375q1.609375 0 2.625 1.046875q1.015625 1.046875 1.015625 2.90625q0 1.5 -0.4453125 2.359375q-0.4453125 0.859375 -1.3125 1.3359375q-0.8671875 0.4765625 -1.8828125 0.4765625q-1.625 0 -2.6328125 -1.046875q-1.0078125 -1.046875 -1.0078125 -3.015625zm1.359375 0q0 1.5 0.6484375 2.2421875q0.6484375 0.7421875 1.6328125 0.7421875q0.984375 0 1.640625 -0.75q0.65625 -0.75 0.65625 -2.28125q0 -1.4375 -0.65625 -2.1796875q-0.65625 -0.7421875 -1.640625 -0.7421875q-0.984375 0 -1.6328125 0.734375q-0.6484375 0.734375 -0.6484375 2.234375zm12.385498 3.890625l0 -1.140625q-0.921875 1.3125 -2.46875 1.3125q-0.6875 0 -1.2890625 -0.265625q-0.6015625 -0.265625 -0.890625 -0.6640625q-0.2890625 -0.3984375 -0.3984375 -0.9765625q-0.09375 -0.375 -0.09375 -1.21875l0 -4.828125l1.328125 0l0 4.3125q0 1.03125 0.078125 1.390625q0.125 0.53125 0.5234375 0.828125q0.3984375 0.296875 0.9921875 0.296875q0.59375 0 1.1171875 -0.3046875q0.5234375 -0.3046875 0.7421875 -0.828125q0.21875 -0.5234375 0.21875 -1.5234375l0 -4.171875l1.3125 0l0 7.78125l-1.171875 0zm3.041748 0l0 -7.78125l1.1875 0l0 1.109375q0.859375 -1.28125 2.484375 -1.28125q0.703125 0 1.2890625 0.25q0.5859375 0.25 0.8828125 0.6640625q0.296875 0.4140625 0.40625 0.9765625q0.078125 0.359375 0.078125 1.28125l0 4.78125l-1.328125 0l0 -4.734375q0 -0.796875 -0.1484375 -1.1953125q-0.1484375 -0.3984375 -0.5390625 -0.640625q-0.390625 -0.2421875 -0.921875 -0.2421875q-0.84375 0 -1.453125 0.53125q-0.609375 0.53125 -0.609375 2.03125l0 4.25l-1.328125 0zm11.041748 -1.171875l0.1875 1.15625q-0.5625 0.125 -1.0 0.125q-0.71875 0 -1.1171875 -0.234375q-0.3984375 -0.234375 -0.5546875 -0.6015625q-0.15625 -0.3671875 -0.15625 -1.5546875l0 -4.46875l-0.96875 0l0 -1.03125l0.96875 0l0 -1.921875l1.3125 -0.796875l0 2.71875l1.328125 0l0 1.03125l-1.328125 0l0 4.546875q0 0.5625 0.0703125 0.7265625q0.0703125 0.1640625 0.2265625 0.2578125q0.15625 0.09375 0.4375 0.09375q0.234375 0 0.59375 -0.046875zm6.5094604 -1.328125l1.359375 0.15625q-0.3125 1.203125 -1.1875 1.859375q-0.875 0.65625 -2.234375 0.65625q-1.703125 0 -2.703125 -1.046875q-1.0 -1.046875 -1.0 -2.953125q0 -1.953125 1.015625 -3.0390625q1.015625 -1.0859375 2.625 -1.0859375q1.5625 0 2.546875 1.0625q0.984375 1.0625 0.984375 2.984375q0 0.125 0 0.359375l-5.8125 0q0.078125 1.28125 0.7265625 1.9609375q0.6484375 0.6796875 1.6328125 0.6796875q0.71875 0 1.234375 -0.3828125q0.515625 -0.3828125 0.8125 -1.2109375zm-4.328125 -2.140625l4.34375 0q-0.09375 -0.984375 -0.5 -1.46875q-0.625 -0.765625 -1.625 -0.765625q-0.921875 0 -1.5390625 0.609375q-0.6171875 0.609375 -0.6796875 1.625zm12.197998 4.640625l0 -0.984375q-0.734375 1.15625 -2.171875 1.15625q-0.921875 0 -1.703125 -0.5078125q-0.78125 -0.5078125 -1.2109375 -1.4296875q-0.4296875 -0.921875 -0.4296875 -2.109375q0 -1.171875 0.390625 -2.1171875q0.390625 -0.9453125 1.1640625 -1.453125q0.7734375 -0.5078125 1.7265625 -0.5078125q0.703125 0 1.2578125 0.296875q0.5546875 0.296875 0.8984375 0.765625l0 -3.84375l1.3125 0l0 10.734375l-1.234375 0zm-4.15625 -3.875q0 1.484375 0.625 2.2265625q0.625 0.7421875 1.484375 0.7421875q0.859375 0 1.46875 -0.7109375q0.609375 -0.7109375 0.609375 -2.1484375q0 -1.609375 -0.6171875 -2.3515625q-0.6171875 -0.7421875 -1.5234375 -0.7421875q-0.875 0 -1.4609375 0.71875q-0.5859375 0.71875 -0.5859375 2.265625z" fill-rule="nonzero"></path><path stroke="#000000" stroke-width="2.0" stroke-linejoin="round" stroke-linecap="butt" d="m264.0 184.0l68.0 0" fill-rule="evenodd"></path><path fill="#000000" stroke="#000000" stroke-width="2.0" stroke-linecap="butt" d="m332.0 187.30347l9.076202 -3.3034668l-9.076202 -3.3034668z" fill-rule="evenodd"></path><path stroke="#000000" stroke-width="2.0" stroke-linejoin="round" stroke-linecap="butt" d="m344.0 184.0l-68.0 0" fill-rule="evenodd"></path><path fill="#000000" stroke="#000000" stroke-width="2.0" stroke-linecap="butt" d="m276.0 180.69653l-9.076202 3.3034668l9.076202 3.3034668z" fill-rule="evenodd"></path><path stroke="#000000" stroke-width="2.0" stroke-linejoin="round" stroke-linecap="butt" d="m460.08325 200.97055l92.30682 26.722015" fill-rule="evenodd"></path><path fill="#000000" stroke="#000000" stroke-width="2.0" stroke-linecap="butt" d="m551.47144 230.86574l9.636841 -0.6493225l-7.7996216 -5.6970215z" fill-rule="evenodd"></path><path stroke="#000000" stroke-width="2.0" stroke-linejoin="round" stroke-linecap="butt" d="m563.91675 231.02945l-92.30679 -26.722015" fill-rule="evenodd"></path><path fill="#000000" stroke="#000000" stroke-width="2.0" stroke-linecap="butt" d="m472.52856 201.13426l-9.63681 0.6493225l7.7996216 5.6970215z" fill-rule="evenodd"></path><path stroke="#000000" stroke-width="2.0" stroke-linejoin="round" stroke-linecap="butt" d="m563.91675 264.97055l-92.30679 26.722015" fill-rule="evenodd"></path><path fill="#000000" stroke="#000000" stroke-width="2.0" stroke-linecap="butt" d="m470.69138 288.51938l-7.7996216 5.6970215l9.63681 0.6493225z" fill-rule="evenodd"></path><path stroke="#000000" stroke-width="2.0" stroke-linejoin="round" stroke-linecap="butt" d="m460.08325 295.02945l92.30682 -26.722015" fill-rule="evenodd"></path><path fill="#000000" stroke="#000000" stroke-width="2.0" stroke-linecap="butt" d="m553.30865 271.48062l7.7996216 -5.6970215l-9.636841 -0.6493225z" fill-rule="evenodd"></path><path stroke="#000000" stroke-width="2.0" stroke-linejoin="round" stroke-linecap="butt" d="m412.0 288.0l0 -68.0" fill-rule="evenodd"></path><path fill="#000000" stroke="#000000" stroke-width="2.0" stroke-linecap="butt" d="m415.30347 220.0l-3.3034668 -9.076202l-3.3034668 9.076202z" fill-rule="evenodd"></path><path stroke="#000000" stroke-width="2.0" stroke-linejoin="round" stroke-linecap="butt" d="m412.0 208.0l0 68.0" fill-rule="evenodd"></path><path fill="#000000" stroke="#000000" stroke-width="2.0" stroke-linecap="butt" d="m408.69653 276.0l3.3034668 9.076202l3.3034668 -9.076202z" fill-rule="evenodd"></path></svg>

