<?xml version="1.0" standalone="yes"?>

<svg version="1.1" viewBox="0.0 0.0 1024.0 768.0" fill="none" stroke="none" stroke-linecap="square" stroke-miterlimit="10" clip-path="url(#p.0)" xmlns="http://www.w3.org/2000/svg" xmlns:xlink="http://www.w3.org/1999/xlink"><clipPath id="p.0"><path d="m0 0l1024.0 0l0 768.0l-1024.0 0l0 -768.0z" clip-rule="nonzero"></path></clipPath><path fill="#cfe2f3" stroke="#000000" stroke-width="2.0" stroke-linejoin="round" stroke-linecap="butt" d="m320.0 272.0l0 0c0 -13.254822 26.862915 -24.0 60.0 -24.0l0 0c33.137085 0 60.0 10.745178 60.0 24.0l0 0c0 13.254822 -26.862915 24.0 -60.0 24.0l0 0c-33.137085 0 -60.0 -10.745178 -60.0 -24.0z" fill-rule="nonzero"></path><path fill="#000000" d="m356.3022 276.83594l0 -10.734375l4.046875 0q1.078125 0 1.640625 0.09375q0.78125 0.140625 1.3203125 0.5078125q0.5390625 0.3671875 0.8671875 1.03125q0.328125 0.6640625 0.328125 1.4765625q0 1.359375 -0.875 2.3125q-0.875 0.953125 -3.15625 0.953125l-2.75 0l0 4.359375l-1.421875 0zm1.421875 -5.625l2.78125 0q1.375 0 1.953125 -0.515625q0.578125 -0.515625 0.578125 -1.453125q0 -0.671875 -0.34375 -1.1484375q-0.34375 -0.4765625 -0.890625 -0.6328125q-0.359375 -0.09375 -1.328125 -0.09375l-2.75 0l0 3.84375zm13.259979 4.671875q-0.734375 0.609375 -1.40625 0.8671875q-0.671875 0.2578125 -1.453125 0.2578125q-1.28125 0 -1.96875 -0.625q-0.6875 -0.625 -0.6875 -1.59375q0 -0.578125 0.2578125 -1.046875q0.2578125 -0.46875 0.6796875 -0.7578125q0.421875 -0.2890625 0.953125 -0.4296875q0.375 -0.109375 1.171875 -0.203125q1.59375 -0.1875 2.34375 -0.453125q0.015625 -0.265625 0.015625 -0.34375q0 -0.8125 -0.375 -1.140625q-0.515625 -0.4375 -1.5 -0.4375q-0.9375 0 -1.3828125 0.3203125q-0.4453125 0.3203125 -0.6484375 1.1484375l-1.296875 -0.171875q0.171875 -0.828125 0.578125 -1.3359375q0.40625 -0.5078125 1.171875 -0.78125q0.765625 -0.2734375 1.765625 -0.2734375q1.0 0 1.6171875 0.234375q0.6171875 0.234375 0.9140625 0.5859375q0.296875 0.3515625 0.40625 0.8984375q0.0625 0.34375 0.0625 1.21875l0 1.75q0 1.84375 0.0859375 2.328125q0.0859375 0.484375 0.3359375 0.9375l-1.375 0q-0.203125 -0.40625 -0.265625 -0.953125zm-0.109375 -2.953125q-0.71875 0.296875 -2.15625 0.5q-0.8125 0.125 -1.1484375 0.265625q-0.3359375 0.140625 -0.515625 0.421875q-0.1796875 0.28125 -0.1796875 0.625q0 0.53125 0.3984375 0.8828125q0.3984375 0.3515625 1.1640625 0.3515625q0.765625 0 1.359375 -0.3359375q0.59375 -0.3359375 0.875 -0.9140625q0.203125 -0.4375 0.203125 -1.3125l0 -0.484375zm8.291718 3.90625l0 -1.140625q-0.921875 1.3125 -2.46875 1.3125q-0.6875 0 -1.2890625 -0.265625q-0.6015625 -0.265625 -0.890625 -0.6640625q-0.2890625 -0.3984375 -0.3984375 -0.9765625q-0.09375 -0.375 -0.09375 -1.21875l0 -4.828125l1.328125 0l0 4.3125q0 1.03125 0.078125 1.390625q0.125 0.53125 0.5234375 0.828125q0.3984375 0.296875 0.9921875 0.296875q0.59375 0 1.1171875 -0.3046875q0.5234375 -0.3046875 0.7421875 -0.828125q0.21875 -0.5234375 0.21875 -1.5234375l0 -4.171875l1.3125 0l0 7.78125l-1.171875 0zm2.526123 -2.328125l1.296875 -0.203125q0.109375 0.78125 0.609375 1.203125q0.5 0.421875 1.40625 0.421875q0.90625 0 1.34375 -0.3671875q0.4375 -0.3671875 0.4375 -0.8671875q0 -0.453125 -0.390625 -0.703125q-0.265625 -0.1875 -1.34375 -0.453125q-1.453125 -0.359375 -2.0078125 -0.6328125q-0.5546875 -0.2734375 -0.84375 -0.7421875q-0.2890625 -0.46875 -0.2890625 -1.046875q0 -0.515625 0.234375 -0.9609375q0.234375 -0.4453125 0.640625 -0.7265625q0.3125 -0.234375 0.84375 -0.390625q0.53125 -0.15625 1.140625 -0.15625q0.90625 0 1.6015625 0.265625q0.6953125 0.265625 1.0234375 0.7109375q0.328125 0.4453125 0.453125 1.2109375l-1.28125 0.171875q-0.09375 -0.609375 -0.515625 -0.9453125q-0.421875 -0.3359375 -1.1875 -0.3359375q-0.90625 0 -1.296875 0.3046875q-0.390625 0.3046875 -0.390625 0.7109375q0 0.25 0.15625 0.453125q0.171875 0.21875 0.515625 0.359375q0.1875 0.0625 1.15625 0.328125q1.40625 0.375 1.9609375 0.609375q0.5546875 0.234375 0.8671875 0.6953125q0.3125 0.4609375 0.3125 1.1328125q0 0.65625 -0.3828125 1.234375q-0.3828125 0.578125 -1.109375 0.8984375q-0.7265625 0.3203125 -1.6484375 0.3203125q-1.515625 0 -2.3046875 -0.625q-0.7890625 -0.625 -1.0078125 -1.875zm13.171875 -0.171875l1.359375 0.15625q-0.3125 1.203125 -1.1875 1.859375q-0.875 0.65625 -2.234375 0.65625q-1.703125 0 -2.703125 -1.046875q-1.0 -1.046875 -1.0 -2.953125q0 -1.953125 1.015625 -3.0390625q1.015625 -1.0859375 2.625 -1.0859375q1.5625 0 2.546875 1.0625q0.984375 1.0625 0.984375 2.984375q0 0.125 0 0.359375l-5.8125 0q0.078125 1.28125 0.7265625 1.9609375q0.6484375 0.6796875 1.6328125 0.6796875q0.71875 0 1.234375 -0.3828125q0.515625 -0.3828125 0.8125 -1.2109375zm-4.328125 -2.140625l4.34375 0q-0.09375 -0.984375 -0.5 -1.46875q-0.625 -0.765625 -1.625 -0.765625q-0.921875 0 -1.5390625 0.609375q-0.6171875 0.609375 -0.6796875 1.625zm12.197968 4.640625l0 -0.984375q-0.734375 1.15625 -2.171875 1.15625q-0.921875 0 -1.703125 -0.5078125q-0.78125 -0.5078125 -1.2109375 -1.4296875q-0.4296875 -0.921875 -0.4296875 -2.109375q0 -1.171875 0.390625 -2.1171875q0.390625 -0.9453125 1.1640625 -1.453125q0.7734375 -0.5078125 1.7265625 -0.5078125q0.703125 0 1.2578125 0.296875q0.5546875 0.296875 0.8984375 0.765625l0 -3.84375l1.3125 0l0 10.734375l-1.234375 0zm-4.15625 -3.875q0 1.484375 0.625 2.2265625q0.625 0.7421875 1.484375 0.7421875q0.859375 0 1.46875 -0.7109375q0.609375 -0.7109375 0.609375 -2.1484375q0 -1.609375 -0.6171875 -2.3515625q-0.6171875 -0.7421875 -1.5234375 -0.7421875q-0.875 0 -1.4609375 0.71875q-0.5859375 0.71875 -0.5859375 2.265625z" fill-rule="nonzero"></path><path fill="#cfe2f3" stroke="#000000" stroke-width="2.0" stroke-linejoin="round" stroke-linecap="butt" d="m400.0 528.0l0 0c0 -13.254822 34.026367 -24.0 76.0 -24.0l0 0c41.973633 0 76.0 10.745178 76.0 24.0l0 0c0 13.254822 -34.026367 24.0 -76.0 24.0l0 0c-41.973633 0 -76.0 -10.745178 -76.0 -24.0z" fill-rule="nonzero"></path><path fill="#000000" d="m445.9094 522.10156l1.421875 0l0 6.203125q0 1.609375 -0.3671875 2.5625q-0.3671875 0.953125 -1.3203125 1.5546875q-0.953125 0.6015625 -2.515625 0.6015625q-1.5 0 -2.4609375 -0.5234375q-0.9609375 -0.5234375 -1.375 -1.5078125q-0.4140625 -0.984375 -0.4140625 -2.6875l0 -6.203125l1.421875 0l0 6.1875q0 1.40625 0.265625 2.0703125q0.265625 0.6640625 0.8984375 1.0234375q0.6328125 0.359375 1.5390625 0.359375q1.578125 0 2.2421875 -0.7109375q0.6640625 -0.7109375 0.6640625 -2.7421875l0 -6.1875zm3.365509 10.734375l0 -7.78125l1.1875 0l0 1.109375q0.859375 -1.28125 2.484375 -1.28125q0.703125 0 1.2890625 0.25q0.5859375 0.25 0.8828125 0.6640625q0.296875 0.4140625 0.40625 0.9765625q0.078125 0.359375 0.078125 1.28125l0 4.78125l-1.328125 0l0 -4.734375q0 -0.796875 -0.1484375 -1.1953125q-0.1484375 -0.3984375 -0.5390625 -0.640625q-0.390625 -0.2421875 -0.921875 -0.2421875q-0.84375 0 -1.453125 0.53125q-0.609375 0.53125 -0.609375 2.03125l0 4.25l-1.328125 0zm13.229248 -0.953125q-0.734375 0.609375 -1.40625 0.8671875q-0.671875 0.2578125 -1.453125 0.2578125q-1.28125 0 -1.96875 -0.625q-0.6875 -0.625 -0.6875 -1.59375q0 -0.578125 0.2578125 -1.046875q0.2578125 -0.46875 0.6796875 -0.7578125q0.421875 -0.2890625 0.953125 -0.4296875q0.375 -0.109375 1.171875 -0.203125q1.59375 -0.1875 2.34375 -0.453125q0.015625 -0.265625 0.015625 -0.34375q0 -0.8125 -0.375 -1.140625q-0.515625 -0.4375 -1.5 -0.4375q-0.9375 0 -1.3828125 0.3203125q-0.4453125 0.3203125 -0.6484375 1.1484375l-1.296875 -0.171875q0.171875 -0.828125 0.578125 -1.3359375q0.40625 -0.5078125 1.171875 -0.78125q0.765625 -0.2734375 1.765625 -0.2734375q1.0 0 1.6171875 0.234375q0.6171875 0.234375 0.9140625 0.5859375q0.296875 0.3515625 0.40625 0.8984375q0.0625 0.34375 0.0625 1.21875l0 1.75q0 1.84375 0.0859375 2.328125q0.0859375 0.484375 0.3359375 0.9375l-1.375 0q-0.203125 -0.40625 -0.265625 -0.953125zm-0.109375 -2.953125q-0.71875 0.296875 -2.15625 0.5q-0.8125 0.125 -1.1484375 0.265625q-0.3359375 0.140625 -0.515625 0.421875q-0.1796875 0.28125 -0.1796875 0.625q0 0.53125 0.3984375 0.8828125q0.3984375 0.3515625 1.1640625 0.3515625q0.765625 0 1.359375 -0.3359375q0.59375 -0.3359375 0.875 -0.9140625q0.203125 -0.4375 0.203125 -1.3125l0 -0.484375zm5.3542175 3.90625l-2.96875 -7.78125l1.390625 0l1.671875 4.65625q0.265625 0.765625 0.5 1.578125q0.171875 -0.625 0.484375 -1.484375l1.734375 -4.75l1.359375 0l-2.953125 7.78125l-1.21875 0zm10.234375 -0.953125q-0.734375 0.609375 -1.40625 0.8671875q-0.671875 0.2578125 -1.453125 0.2578125q-1.28125 0 -1.96875 -0.625q-0.6875 -0.625 -0.6875 -1.59375q0 -0.578125 0.2578125 -1.046875q0.2578125 -0.46875 0.6796875 -0.7578125q0.421875 -0.2890625 0.953125 -0.4296875q0.375 -0.109375 1.171875 -0.203125q1.59375 -0.1875 2.34375 -0.453125q0.015625 -0.265625 0.015625 -0.34375q0 -0.8125 -0.375 -1.140625q-0.515625 -0.4375 -1.5 -0.4375q-0.9375 0 -1.3828125 0.3203125q-0.4453125 0.3203125 -0.6484375 1.1484375l-1.296875 -0.171875q0.171875 -0.828125 0.578125 -1.3359375q0.40625 -0.5078125 1.171875 -0.78125q0.765625 -0.2734375 1.765625 -0.2734375q1.0 0 1.6171875 0.234375q0.6171875 0.234375 0.9140625 0.5859375q0.296875 0.3515625 0.40625 0.8984375q0.0625 0.34375 0.0625 1.21875l0 1.75q0 1.84375 0.0859375 2.328125q0.0859375 0.484375 0.3359375 0.9375l-1.375 0q-0.203125 -0.40625 -0.265625 -0.953125zm-0.109375 -2.953125q-0.71875 0.296875 -2.15625 0.5q-0.8125 0.125 -1.1484375 0.265625q-0.3359375 0.140625 -0.515625 0.421875q-0.1796875 0.28125 -0.1796875 0.625q0 0.53125 0.3984375 0.8828125q0.3984375 0.3515625 1.1640625 0.3515625q0.765625 0 1.359375 -0.3359375q0.59375 -0.3359375 0.875 -0.9140625q0.203125 -0.4375 0.203125 -1.3125l0 -0.484375zm3.197998 -5.3125l0 -1.515625l1.3125 0l0 1.515625l-1.3125 0zm0 9.21875l0 -7.78125l1.3125 0l0 7.78125l-1.3125 0zm3.209259 0l0 -10.734375l1.328125 0l0 10.734375l-1.328125 0zm8.365509 -0.953125q-0.734375 0.609375 -1.40625 0.8671875q-0.671875 0.2578125 -1.453125 0.2578125q-1.28125 0 -1.96875 -0.625q-0.6875 -0.625 -0.6875 -1.59375q0 -0.578125 0.2578125 -1.046875q0.2578125 -0.46875 0.6796875 -0.7578125q0.421875 -0.2890625 0.953125 -0.4296875q0.375 -0.109375 1.171875 -0.203125q1.59375 -0.1875 2.34375 -0.453125q0.015625 -0.265625 0.015625 -0.34375q0 -0.8125 -0.375 -1.140625q-0.515625 -0.4375 -1.5 -0.4375q-0.9375 0 -1.3828125 0.3203125q-0.4453125 0.3203125 -0.6484375 1.1484375l-1.296875 -0.171875q0.171875 -0.828125 0.578125 -1.3359375q0.40625 -0.5078125 1.171875 -0.78125q0.765625 -0.2734375 1.765625 -0.2734375q1.0 0 1.6171875 0.234375q0.6171875 0.234375 0.9140625 0.5859375q0.296875 0.3515625 0.40625 0.8984375q0.0625 0.34375 0.0625 1.21875l0 1.75q0 1.84375 0.0859375 2.328125q0.0859375 0.484375 0.3359375 0.9375l-1.375 0q-0.203125 -0.40625 -0.265625 -0.953125zm-0.109375 -2.953125q-0.71875 0.296875 -2.15625 0.5q-0.8125 0.125 -1.1484375 0.265625q-0.3359375 0.140625 -0.515625 0.421875q-0.1796875 0.28125 -0.1796875 0.625q0 0.53125 0.3984375 0.8828125q0.3984375 0.3515625 1.1640625 0.3515625q0.765625 0 1.359375 -0.3359375q0.59375 -0.3359375 0.875 -0.9140625q0.203125 -0.4375 0.203125 -1.3125l0 -0.484375zm4.401123 3.90625l-1.21875 0l0 -10.734375l1.3125 0l0 3.828125q0.84375 -1.046875 2.140625 -1.046875q0.71875 0 1.359375 0.2890625q0.640625 0.2890625 1.0546875 0.8125q0.4140625 0.5234375 0.6484375 1.265625q0.234375 0.7421875 0.234375 1.5859375q0 2.0 -0.9921875 3.0859375q-0.9921875 1.0859375 -2.3828125 1.0859375q-1.375 0 -2.15625 -1.140625l0 0.96875zm-0.015625 -3.953125q0 1.40625 0.390625 2.03125q0.609375 1.015625 1.671875 1.015625q0.875 0 1.5 -0.75q0.625 -0.75 0.625 -2.234375q0 -1.53125 -0.6015625 -2.2578125q-0.6015625 -0.7265625 -1.4609375 -0.7265625q-0.859375 0 -1.4921875 0.75q-0.6328125 0.75 -0.6328125 2.171875zm6.9167175 3.953125l0 -10.734375l1.328125 0l0 10.734375l-1.328125 0zm8.61554 -2.5l1.359375 0.15625q-0.3125 1.203125 -1.1875 1.859375q-0.875 0.65625 -2.234375 0.65625q-1.703125 0 -2.703125 -1.046875q-1.0 -1.046875 -1.0 -2.953125q0 -1.953125 1.015625 -3.0390625q1.015625 -1.0859375 2.625 -1.0859375q1.5625 0 2.546875 1.0625q0.984375 1.0625 0.984375 2.984375q0 0.125 0 0.359375l-5.8125 0q0.078125 1.28125 0.7265625 1.9609375q0.6484375 0.6796875 1.6328125 0.6796875q0.71875 0 1.234375 -0.3828125q0.515625 -0.3828125 0.8125 -1.2109375zm-4.328125 -2.140625l4.34375 0q-0.09375 -0.984375 -0.5 -1.46875q-0.625 -0.765625 -1.625 -0.765625q-0.921875 0 -1.5390625 0.609375q-0.6171875 0.609375 -0.6796875 1.625z" fill-rule="nonzero"></path><path stroke="#000000" stroke-width="2.0" stroke-linejoin="round" stroke-linecap="butt" d="m224.0 392.0l68.0 0" fill-rule="evenodd"></path><path fill="#000000" stroke="#000000" stroke-width="2.0" stroke-linecap="butt" d="m292.0 395.30347l9.076202 -3.3034668l-9.076202 -3.3034668z" fill-rule="evenodd"></path><path stroke="#000000" stroke-width="2.0" stroke-linejoin="round" stroke-linecap="butt" d="m696.0 392.0l76.0 0" fill-rule="evenodd"></path><path fill="#000000" stroke="#000000" stroke-width="2.0" stroke-linecap="butt" d="m772.0 395.30347l9.076172 -3.3034668l-9.076172 -3.3034668z" fill-rule="evenodd"></path><path stroke="#000000" stroke-width="2.0" stroke-linejoin="round" stroke-linecap="butt" d="m424.0 392.0l140.0 0" fill-rule="evenodd"></path><path fill="#000000" stroke="#000000" stroke-width="2.0" stroke-linecap="butt" d="m564.0 395.30347l9.076172 -3.3034668l-9.076172 -3.3034668z" fill-rule="evenodd"></path><path fill="#000000" d="m251.87598 381.1953l1.0625 -0.09375q0.078125 0.65625 0.359375 1.0625q0.28125 0.40625 0.8671875 0.6640625q0.5859375 0.2578125 1.3203125 0.2578125q0.640625 0 1.140625 -0.1953125q0.5 -0.1953125 0.7421875 -0.53125q0.2421875 -0.3359375 0.2421875 -0.7265625q0 -0.40625 -0.234375 -0.7109375q-0.234375 -0.3046875 -0.765625 -0.5078125q-0.359375 -0.140625 -1.5390625 -0.421875q-1.1796875 -0.28125 -1.6484375 -0.53125q-0.625 -0.328125 -0.921875 -0.8046875q-0.296875 -0.4765625 -0.296875 -1.0703125q0 -0.640625 0.3671875 -1.2109375q0.3671875 -0.5703125 1.078125 -0.859375q0.7109375 -0.2890625 1.5703125 -0.2890625q0.953125 0 1.6875 0.3046875q0.734375 0.3046875 1.125 0.90625q0.390625 0.6015625 0.421875 1.3515625l-1.09375 0.078125q-0.09375 -0.8125 -0.6015625 -1.2265625q-0.5078125 -0.4140625 -1.4921875 -0.4140625q-1.03125 0 -1.5 0.375q-0.46875 0.375 -0.46875 0.90625q0 0.46875 0.328125 0.765625q0.328125 0.296875 1.7109375 0.609375q1.3828125 0.3125 1.8984375 0.546875q0.75 0.359375 1.109375 0.8828125q0.359375 0.5234375 0.359375 1.2265625q0 0.6875 -0.390625 1.2890625q-0.390625 0.6015625 -1.125 0.9375q-0.734375 0.3359375 -1.65625 0.3359375q-1.171875 0 -1.9609375 -0.3359375q-0.7890625 -0.3359375 -1.234375 -1.0234375q-0.4453125 -0.6875 -0.4609375 -1.546875zm10.550781 1.828125l0.15625 0.921875q-0.453125 0.09375 -0.796875 0.09375q-0.578125 0 -0.890625 -0.1796875q-0.3125 -0.1796875 -0.4453125 -0.4765625q-0.1328125 -0.296875 -0.1328125 -1.25l0 -3.578125l-0.765625 0l0 -0.8125l0.765625 0l0 -1.546875l1.046875 -0.625l0 2.171875l1.0625 0l0 0.8125l-1.0625 0l0 3.640625q0 0.453125 0.0546875 0.578125q0.0546875 0.125 0.1796875 0.203125q0.125 0.078125 0.359375 0.078125q0.1875 0 0.46875 -0.03125zm5.0996094 0.171875q-0.59375 0.5 -1.1328125 0.703125q-0.5390625 0.203125 -1.1640625 0.203125q-1.03125 0 -1.578125 -0.5q-0.546875 -0.5 -0.546875 -1.28125q0 -0.453125 0.203125 -0.8359375q0.203125 -0.3828125 0.546875 -0.609375q0.34375 -0.2265625 0.765625 -0.3359375q0.296875 -0.09375 0.9375 -0.171875q1.265625 -0.140625 1.875 -0.359375q0 -0.21875 0 -0.265625q0 -0.65625 -0.296875 -0.921875q-0.40625 -0.34375 -1.203125 -0.34375q-0.734375 0 -1.09375 0.2578125q-0.359375 0.2578125 -0.53125 0.9140625l-1.03125 -0.140625q0.140625 -0.65625 0.46875 -1.0625q0.328125 -0.40625 0.9375 -0.625q0.609375 -0.21875 1.40625 -0.21875q0.796875 0 1.296875 0.1875q0.5 0.1875 0.734375 0.46875q0.234375 0.28125 0.328125 0.71875q0.046875 0.265625 0.046875 0.96875l0 1.40625q0 1.46875 0.0703125 1.859375q0.0703125 0.390625 0.2734375 0.75l-1.109375 0q-0.15625 -0.328125 -0.203125 -0.765625zm-0.09375 -2.359375q-0.578125 0.234375 -1.71875 0.40625q-0.65625 0.09375 -0.921875 0.2109375q-0.265625 0.1171875 -0.4140625 0.3359375q-0.1484375 0.21875 -0.1484375 0.5q0 0.421875 0.3203125 0.703125q0.3203125 0.28125 0.9296875 0.28125q0.609375 0 1.0859375 -0.265625q0.4765625 -0.265625 0.6953125 -0.734375q0.171875 -0.359375 0.171875 -1.046875l0 -0.390625zm2.6894531 3.125l0 -6.21875l0.953125 0l0 0.9375q0.359375 -0.65625 0.6640625 -0.8671875q0.3046875 -0.2109375 0.6796875 -0.2109375q0.53125 0 1.078125 0.328125l-0.359375 0.984375q-0.390625 -0.234375 -0.765625 -0.234375q-0.359375 0 -0.6328125 0.2109375q-0.2734375 0.2109375 -0.3828125 0.5859375q-0.1875 0.5625 -0.1875 1.21875l0 3.265625l-1.046875 0zm6.3085938 -0.9375l0.15625 0.921875q-0.453125 0.09375 -0.796875 0.09375q-0.578125 0 -0.890625 -0.1796875q-0.3125 -0.1796875 -0.4453125 -0.4765625q-0.1328125 -0.296875 -0.1328125 -1.25l0 -3.578125l-0.765625 0l0 -0.8125l0.765625 0l0 -1.546875l1.046875 -0.625l0 2.171875l1.0625 0l0 0.8125l-1.0625 0l0 3.640625q0 0.453125 0.0546875 0.578125q0.0546875 0.125 0.1796875 0.203125q0.125 0.078125 0.359375 0.078125q0.1875 0 0.46875 -0.03125z" fill-rule="nonzero"></path><path fill="#000000" d="m732.2041 381.1953l1.0625 -0.09375q0.078125 0.65625 0.359375 1.0625q0.28125 0.40625 0.8671875 0.6640625q0.5859375 0.2578125 1.3203125 0.2578125q0.640625 0 1.140625 -0.1953125q0.5 -0.1953125 0.7421875 -0.53125q0.2421875 -0.3359375 0.2421875 -0.7265625q0 -0.40625 -0.234375 -0.7109375q-0.234375 -0.3046875 -0.765625 -0.5078125q-0.359375 -0.140625 -1.5390625 -0.421875q-1.1796875 -0.28125 -1.6484375 -0.53125q-0.625 -0.328125 -0.921875 -0.8046875q-0.296875 -0.4765625 -0.296875 -1.0703125q0 -0.640625 0.3671875 -1.2109375q0.3671875 -0.5703125 1.078125 -0.859375q0.7109375 -0.2890625 1.5703125 -0.2890625q0.953125 0 1.6875 0.3046875q0.734375 0.3046875 1.125 0.90625q0.390625 0.6015625 0.421875 1.3515625l-1.09375 0.078125q-0.09375 -0.8125 -0.6015625 -1.2265625q-0.5078125 -0.4140625 -1.4921875 -0.4140625q-1.03125 0 -1.5 0.375q-0.46875 0.375 -0.46875 0.90625q0 0.46875 0.328125 0.765625q0.328125 0.296875 1.7109375 0.609375q1.3828125 0.3125 1.8984375 0.546875q0.75 0.359375 1.109375 0.8828125q0.359375 0.5234375 0.359375 1.2265625q0 0.6875 -0.390625 1.2890625q-0.390625 0.6015625 -1.125 0.9375q-0.734375 0.3359375 -1.65625 0.3359375q-1.171875 0 -1.9609375 -0.3359375q-0.7890625 -0.3359375 -1.234375 -1.0234375q-0.4453125 -0.6875 -0.4609375 -1.546875zm10.550781 1.828125l0.15625 0.921875q-0.453125 0.09375 -0.796875 0.09375q-0.578125 0 -0.890625 -0.1796875q-0.3125 -0.1796875 -0.4453125 -0.4765625q-0.1328125 -0.296875 -0.1328125 -1.25l0 -3.578125l-0.765625 0l0 -0.8125l0.765625 0l0 -1.546875l1.046875 -0.625l0 2.171875l1.0625 0l0 0.8125l-1.0625 0l0 3.640625q0 0.453125 0.0546875 0.578125q0.0546875 0.125 0.1796875 0.203125q0.125 0.078125 0.359375 0.078125q0.1875 0 0.46875 -0.03125zm0.6464844 -2.171875q0 -1.734375 0.953125 -2.5625q0.796875 -0.6875 1.953125 -0.6875q1.28125 0 2.1015625 0.8359375q0.8203125 0.8359375 0.8203125 2.3203125q0 1.203125 -0.359375 1.890625q-0.359375 0.6875 -1.0546875 1.0703125q-0.6953125 0.3828125 -1.5078125 0.3828125q-1.296875 0 -2.1015625 -0.8359375q-0.8046875 -0.8359375 -0.8046875 -2.4140625zm1.078125 0q0 1.1875 0.5234375 1.78125q0.5234375 0.59375 1.3046875 0.59375q0.796875 0 1.3125 -0.59375q0.515625 -0.59375 0.515625 -1.8125q0 -1.15625 -0.5234375 -1.75q-0.5234375 -0.59375 -1.3046875 -0.59375q-0.78125 0 -1.3046875 0.5859375q-0.5234375 0.5859375 -0.5234375 1.7890625zm5.986328 5.5l0 -8.609375l0.953125 0l0 0.796875q0.34375 -0.46875 0.7734375 -0.703125q0.4296875 -0.234375 1.0390625 -0.234375q0.796875 0 1.40625 0.40625q0.609375 0.40625 0.9140625 1.15625q0.3046875 0.75 0.3046875 1.640625q0 0.953125 -0.3359375 1.71875q-0.3359375 0.765625 -0.9921875 1.171875q-0.65625 0.40625 -1.375 0.40625q-0.53125 0 -0.953125 -0.2265625q-0.421875 -0.2265625 -0.6875 -0.5546875l0 3.03125l-1.046875 0zm0.953125 -5.46875q0 1.203125 0.484375 1.7734375q0.484375 0.5703125 1.171875 0.5703125q0.703125 0 1.203125 -0.59375q0.5 -0.59375 0.5 -1.84375q0 -1.1875 -0.484375 -1.7734375q-0.484375 -0.5859375 -1.171875 -0.5859375q-0.671875 0 -1.1875 0.625q-0.515625 0.625 -0.515625 1.828125z" fill-rule="nonzero"></path><path stroke="#000000" stroke-width="2.0" stroke-linejoin="round" stroke-linecap="butt" d="m690.352 400.9028l0 0c23.011353 3.0354004 38.943665 15.718323 37.56604 29.90448c-1.3776245 14.186127 -19.655762 25.659943 -43.097168 27.053497c-23.441467 1.3935852 -45.08026 -7.707184 -51.02118 -21.458252" fill-rule="nonzero"></path><path fill="#000000" d="m665.2637 447.96094l0 -8.59375l3.8125 0q1.15625 0 1.75 0.234375q0.59375 0.234375 0.953125 0.8203125q0.359375 0.5859375 0.359375 1.2890625q0 0.921875 -0.59375 1.546875q-0.59375 0.625 -1.828125 0.796875q0.453125 0.21875 0.6875 0.421875q0.5 0.453125 0.9375 1.140625l1.5 2.34375l-1.4375 0l-1.125 -1.78125q-0.5 -0.78125 -0.8203125 -1.1875q-0.3203125 -0.40625 -0.578125 -0.5703125q-0.2578125 -0.1640625 -0.5234375 -0.2421875q-0.1875 -0.03125 -0.625 -0.03125l-1.328125 0l0 3.8125l-1.140625 0zm1.140625 -4.796875l2.453125 0q0.765625 0 1.2109375 -0.1640625q0.4453125 -0.1640625 0.671875 -0.515625q0.2265625 -0.3515625 0.2265625 -0.7734375q0 -0.609375 -0.4453125 -1.0q-0.4453125 -0.390625 -1.3984375 -0.390625l-2.71875 0l0 2.84375zm11.634766 2.796875l1.09375 0.125q-0.25 0.953125 -0.953125 1.484375q-0.703125 0.53125 -1.78125 0.53125q-1.359375 0 -2.1640625 -0.84375q-0.8046875 -0.84375 -0.8046875 -2.359375q0 -1.5625 0.8125 -2.4296875q0.8125 -0.8671875 2.09375 -0.8671875q1.25 0 2.0390625 0.84375q0.7890625 0.84375 0.7890625 2.390625q0 0.09375 0 0.28125l-4.640625 0q0.0625 1.03125 0.578125 1.5703125q0.515625 0.5390625 1.296875 0.5390625q0.578125 0 0.9921875 -0.3046875q0.4140625 -0.3046875 0.6484375 -0.9609375zm-3.453125 -1.703125l3.46875 0q-0.0625 -0.796875 -0.390625 -1.1875q-0.515625 -0.609375 -1.3125 -0.609375q-0.734375 0 -1.2265625 0.484375q-0.4921875 0.484375 -0.5390625 1.3125zm5.455078 1.84375l1.03125 -0.15625q0.09375 0.625 0.4921875 0.953125q0.3984375 0.328125 1.1328125 0.328125q0.71875 0 1.0703125 -0.2890625q0.3515625 -0.2890625 0.3515625 -0.6953125q0 -0.359375 -0.3125 -0.5625q-0.21875 -0.140625 -1.078125 -0.359375q-1.15625 -0.296875 -1.6015625 -0.5078125q-0.4453125 -0.2109375 -0.6796875 -0.5859375q-0.234375 -0.375 -0.234375 -0.84375q0 -0.40625 0.1875 -0.765625q0.1875 -0.359375 0.515625 -0.59375q0.25 -0.171875 0.671875 -0.296875q0.421875 -0.125 0.921875 -0.125q0.71875 0 1.2734375 0.2109375q0.5546875 0.2109375 0.8203125 0.5703125q0.265625 0.359375 0.359375 0.953125l-1.03125 0.140625q-0.0625 -0.46875 -0.3984375 -0.7421875q-0.3359375 -0.2734375 -0.9609375 -0.2734375q-0.71875 0 -1.03125 0.2421875q-0.3125 0.2421875 -0.3125 0.5703125q0 0.203125 0.125 0.359375q0.140625 0.171875 0.40625 0.28125q0.15625 0.0625 0.9375 0.265625q1.125 0.3125 1.5625 0.5q0.4375 0.1875 0.6875 0.546875q0.25 0.359375 0.25 0.90625q0 0.53125 -0.3046875 0.9921875q-0.3046875 0.4609375 -0.8828125 0.71875q-0.578125 0.2578125 -1.3125 0.2578125q-1.21875 0 -1.8515625 -0.5078125q-0.6328125 -0.5078125 -0.8046875 -1.4921875zm10.671875 -0.140625l1.09375 0.125q-0.25 0.953125 -0.953125 1.484375q-0.703125 0.53125 -1.78125 0.53125q-1.359375 0 -2.1640625 -0.84375q-0.8046875 -0.84375 -0.8046875 -2.359375q0 -1.5625 0.8125 -2.4296875q0.8125 -0.8671875 2.09375 -0.8671875q1.25 0 2.0390625 0.84375q0.7890625 0.84375 0.7890625 2.390625q0 0.09375 0 0.28125l-4.640625 0q0.0625 1.03125 0.578125 1.5703125q0.515625 0.5390625 1.296875 0.5390625q0.578125 0 0.9921875 -0.3046875q0.4140625 -0.3046875 0.6484375 -0.9609375zm-3.453125 -1.703125l3.46875 0q-0.0625 -0.796875 -0.390625 -1.1875q-0.515625 -0.609375 -1.3125 -0.609375q-0.734375 0 -1.2265625 0.484375q-0.4921875 0.484375 -0.5390625 1.3125zm8.173828 2.765625l0.15625 0.921875q-0.453125 0.09375 -0.796875 0.09375q-0.578125 0 -0.890625 -0.1796875q-0.3125 -0.1796875 -0.4453125 -0.4765625q-0.1328125 -0.296875 -0.1328125 -1.25l0 -3.578125l-0.765625 0l0 -0.8125l0.765625 0l0 -1.546875l1.046875 -0.625l0 2.171875l1.0625 0l0 0.8125l-1.0625 0l0 3.640625q0 0.453125 0.0546875 0.578125q0.0546875 0.125 0.1796875 0.203125q0.125 0.078125 0.359375 0.078125q0.1875 0 0.46875 -0.03125z" fill-rule="nonzero"></path><path fill="#000000" d="m484.63184 417.0625l0 -8.59375l1.125 0l0 3.53125l4.46875 0l0 -3.53125l1.140625 0l0 8.59375l-1.140625 0l0 -4.046875l-4.46875 0l0 4.046875l-1.125 0zm8.103516 -3.109375q0 -1.734375 0.953125 -2.5625q0.796875 -0.6875 1.953125 -0.6875q1.28125 0 2.1015625 0.8359375q0.8203125 0.8359375 0.8203125 2.3203125q0 1.203125 -0.359375 1.890625q-0.359375 0.6875 -1.0546875 1.0703125q-0.6953125 0.3828125 -1.5078125 0.3828125q-1.296875 0 -2.1015625 -0.8359375q-0.8046875 -0.8359375 -0.8046875 -2.4140625zm1.078125 0q0 1.1875 0.5234375 1.78125q0.5234375 0.59375 1.3046875 0.59375q0.796875 0 1.3125 -0.59375q0.515625 -0.59375 0.515625 -1.8125q0 -1.15625 -0.5234375 -1.75q-0.5234375 -0.59375 -1.3046875 -0.59375q-0.78125 0 -1.3046875 0.5859375q-0.5234375 0.5859375 -0.5234375 1.7890625zm5.564453 1.25l1.03125 -0.15625q0.09375 0.625 0.4921875 0.953125q0.3984375 0.328125 1.1328125 0.328125q0.71875 0 1.0703125 -0.2890625q0.3515625 -0.2890625 0.3515625 -0.6953125q0 -0.359375 -0.3125 -0.5625q-0.21875 -0.140625 -1.078125 -0.359375q-1.15625 -0.296875 -1.6015625 -0.5078125q-0.4453125 -0.2109375 -0.6796875 -0.5859375q-0.234375 -0.375 -0.234375 -0.84375q0 -0.40625 0.1875 -0.765625q0.1875 -0.359375 0.515625 -0.59375q0.25 -0.171875 0.671875 -0.296875q0.421875 -0.125 0.921875 -0.125q0.71875 0 1.2734375 0.2109375q0.5546875 0.2109375 0.8203125 0.5703125q0.265625 0.359375 0.359375 0.953125l-1.03125 0.140625q-0.0625 -0.46875 -0.3984375 -0.7421875q-0.3359375 -0.2734375 -0.9609375 -0.2734375q-0.71875 0 -1.03125 0.2421875q-0.3125 0.2421875 -0.3125 0.5703125q0 0.203125 0.125 0.359375q0.140625 0.171875 0.40625 0.28125q0.15625 0.0625 0.9375 0.265625q1.125 0.3125 1.5625 0.5q0.4375 0.1875 0.6875 0.546875q0.25 0.359375 0.25 0.90625q0 0.53125 -0.3046875 0.9921875q-0.3046875 0.4609375 -0.8828125 0.71875q-0.578125 0.2578125 -1.3125 0.2578125q-1.21875 0 -1.8515625 -0.5078125q-0.6328125 -0.5078125 -0.8046875 -1.4921875zm8.71875 0.921875l0.15625 0.921875q-0.453125 0.09375 -0.796875 0.09375q-0.578125 0 -0.890625 -0.1796875q-0.3125 -0.1796875 -0.4453125 -0.4765625q-0.1328125 -0.296875 -0.1328125 -1.25l0 -3.578125l-0.765625 0l0 -0.8125l0.765625 0l0 -1.546875l1.046875 -0.625l0 2.171875l1.0625 0l0 0.8125l-1.0625 0l0 3.640625q0 0.453125 0.0546875 0.578125q0.0546875 0.125 0.1796875 0.203125q0.125 0.078125 0.359375 0.078125q0.1875 0 0.46875 -0.03125z" fill-rule="nonzero"></path><path fill="#000000" d="m487.05762 427.84375l1.125 0.296875q-0.359375 1.390625 -1.28125 2.125q-0.921875 0.734375 -2.265625 0.734375q-1.390625 0 -2.265625 -0.5625q-0.875 -0.5625 -1.328125 -1.6328125q-0.453125 -1.0703125 -0.453125 -2.3046875q0 -1.34375 0.515625 -2.34375q0.515625 -1.0 1.4609375 -1.515625q0.9453125 -0.515625 2.0859375 -0.515625q1.28125 0 2.1640625 0.65625q0.8828125 0.65625 1.2265625 1.84375l-1.125 0.265625q-0.296875 -0.9375 -0.8671875 -1.3671875q-0.5703125 -0.4296875 -1.4296875 -0.4296875q-0.984375 0 -1.6484375 0.4765625q-0.6640625 0.4765625 -0.9375 1.2734375q-0.2734375 0.796875 -0.2734375 1.65625q0 1.09375 0.3203125 1.90625q0.3203125 0.8125 0.9921875 1.21875q0.671875 0.40625 1.46875 0.40625q0.953125 0 1.6171875 -0.546875q0.6640625 -0.546875 0.8984375 -1.640625zm2.3847656 3.015625l0 -6.21875l0.953125 0l0 0.9375q0.359375 -0.65625 0.6640625 -0.8671875q0.3046875 -0.2109375 0.6796875 -0.2109375q0.53125 0 1.078125 0.328125l-0.359375 0.984375q-0.390625 -0.234375 -0.765625 -0.234375q-0.359375 0 -0.6328125 0.2109375q-0.2734375 0.2109375 -0.3828125 0.5859375q-0.1875 0.5625 -0.1875 1.21875l0 3.265625l-1.046875 0zm8.074219 -0.765625q-0.59375 0.5 -1.1328125 0.703125q-0.5390625 0.203125 -1.1640625 0.203125q-1.03125 0 -1.578125 -0.5q-0.546875 -0.5 -0.546875 -1.28125q0 -0.453125 0.203125 -0.8359375q0.203125 -0.3828125 0.546875 -0.609375q0.34375 -0.2265625 0.765625 -0.3359375q0.296875 -0.09375 0.9375 -0.171875q1.265625 -0.140625 1.875 -0.359375q0 -0.21875 0 -0.265625q0 -0.65625 -0.296875 -0.921875q-0.40625 -0.34375 -1.203125 -0.34375q-0.734375 0 -1.09375 0.2578125q-0.359375 0.2578125 -0.53125 0.9140625l-1.03125 -0.140625q0.140625 -0.65625 0.46875 -1.0625q0.328125 -0.40625 0.9375 -0.625q0.609375 -0.21875 1.40625 -0.21875q0.796875 0 1.296875 0.1875q0.5 0.1875 0.734375 0.46875q0.234375 0.28125 0.328125 0.71875q0.046875 0.265625 0.046875 0.96875l0 1.40625q0 1.46875 0.0703125 1.859375q0.0703125 0.390625 0.2734375 0.75l-1.109375 0q-0.15625 -0.328125 -0.203125 -0.765625zm-0.09375 -2.359375q-0.578125 0.234375 -1.71875 0.40625q-0.65625 0.09375 -0.921875 0.2109375q-0.265625 0.1171875 -0.4140625 0.3359375q-0.1484375 0.21875 -0.1484375 0.5q0 0.421875 0.3203125 0.703125q0.3203125 0.28125 0.9296875 0.28125q0.609375 0 1.0859375 -0.265625q0.4765625 -0.265625 0.6953125 -0.734375q0.171875 -0.359375 0.171875 -1.046875l0 -0.390625zm2.2832031 1.265625l1.03125 -0.15625q0.09375 0.625 0.4921875 0.953125q0.3984375 0.328125 1.1328125 0.328125q0.71875 0 1.0703125 -0.2890625q0.3515625 -0.2890625 0.3515625 -0.6953125q0 -0.359375 -0.3125 -0.5625q-0.21875 -0.140625 -1.078125 -0.359375q-1.15625 -0.296875 -1.6015625 -0.5078125q-0.4453125 -0.2109375 -0.6796875 -0.5859375q-0.234375 -0.375 -0.234375 -0.84375q0 -0.40625 0.1875 -0.765625q0.1875 -0.359375 0.515625 -0.59375q0.25 -0.171875 0.671875 -0.296875q0.421875 -0.125 0.921875 -0.125q0.71875 0 1.2734375 0.2109375q0.5546875 0.2109375 0.8203125 0.5703125q0.265625 0.359375 0.359375 0.953125l-1.03125 0.140625q-0.0625 -0.46875 -0.3984375 -0.7421875q-0.3359375 -0.2734375 -0.9609375 -0.2734375q-0.71875 0 -1.03125 0.2421875q-0.3125 0.2421875 -0.3125 0.5703125q0 0.203125 0.125 0.359375q0.140625 0.171875 0.40625 0.28125q0.15625 0.0625 0.9375 0.265625q1.125 0.3125 1.5625 0.5q0.4375 0.1875 0.6875 0.546875q0.25 0.359375 0.25 0.90625q0 0.53125 -0.3046875 0.9921875q-0.3046875 0.4609375 -0.8828125 0.71875q-0.578125 0.2578125 -1.3125 0.2578125q-1.21875 0 -1.8515625 -0.5078125q-0.6328125 -0.5078125 -0.8046875 -1.4921875zm6.421875 1.859375l0 -8.59375l1.046875 0l0 3.078125q0.734375 -0.84375 1.859375 -0.84375q0.703125 0 1.2109375 0.2734375q0.5078125 0.2734375 0.7265625 0.75q0.21875 0.4765625 0.21875 1.3984375l0 3.9375l-1.046875 0l0 -3.9375q0 -0.796875 -0.34375 -1.15625q-0.34375 -0.359375 -0.96875 -0.359375q-0.46875 0 -0.8828125 0.2421875q-0.4140625 0.2421875 -0.59375 0.65625q-0.1796875 0.4140625 -0.1796875 1.1484375l0 3.40625l-1.046875 0z" fill-rule="nonzero"></path><path stroke="#000000" stroke-width="2.0" stroke-linejoin="round" stroke-linecap="butt" d="m583.5378 391.36032c4.484436 21.084106 -21.726562 40.7706 -62.354797 46.833405c-40.628204 6.062805 -84.12573 -3.2213745 -103.47882 -22.08667" fill-rule="nonzero"></path><path fill="#cfe2f3" stroke="#000000" stroke-width="2.0" stroke-linejoin="round" stroke-linecap="butt" d="m304.0 392.0l0 0c0 -13.254822 26.862915 -24.0 60.0 -24.0l0 0c33.137085 0 60.0 10.745178 60.0 24.0l0 0c0 13.254822 -26.862915 24.0 -60.0 24.0l0 0c-33.137085 0 -60.0 -10.745178 -60.0 -24.0z" fill-rule="nonzero"></path><path fill="#000000" d="m339.41705 393.3828l1.34375 -0.109375q0.09375 0.796875 0.4453125 1.3125q0.3515625 0.515625 1.078125 0.8359375q0.7265625 0.3203125 1.6484375 0.3203125q0.8125 0 1.4375 -0.2421875q0.625 -0.2421875 0.9296875 -0.6640625q0.3046875 -0.421875 0.3046875 -0.921875q0 -0.5 -0.296875 -0.875q-0.296875 -0.375 -0.96875 -0.640625q-0.4375 -0.15625 -1.9140625 -0.515625q-1.4765625 -0.359375 -2.0703125 -0.671875q-0.765625 -0.40625 -1.1484375 -1.0q-0.3828125 -0.59375 -0.3828125 -1.34375q0 -0.8125 0.4609375 -1.515625q0.4609375 -0.703125 1.3515625 -1.0703125q0.890625 -0.3671875 1.96875 -0.3671875q1.203125 0 2.109375 0.3828125q0.90625 0.3828125 1.3984375 1.1328125q0.4921875 0.75 0.5390625 1.6875l-1.375 0.109375q-0.109375 -1.015625 -0.7421875 -1.5390625q-0.6328125 -0.5234375 -1.8671875 -0.5234375q-1.28125 0 -1.875 0.4765625q-0.59375 0.4765625 -0.59375 1.1328125q0 0.578125 0.421875 0.953125q0.40625 0.375 2.140625 0.765625q1.734375 0.390625 2.375 0.6875q0.9375 0.4375 1.3828125 1.1015625q0.4453125 0.6640625 0.4453125 1.5234375q0 0.859375 -0.4921875 1.6171875q-0.4921875 0.7578125 -1.40625 1.1796875q-0.9140625 0.421875 -2.0703125 0.421875q-1.453125 0 -2.4375 -0.4296875q-0.984375 -0.4296875 -1.546875 -1.28125q-0.5625 -0.8515625 -0.59375 -1.9296875zm12.978729 2.28125l0.1875 1.15625q-0.5625 0.125 -1.0 0.125q-0.71875 0 -1.1171875 -0.234375q-0.3984375 -0.234375 -0.5546875 -0.6015625q-0.15625 -0.3671875 -0.15625 -1.5546875l0 -4.46875l-0.96875 0l0 -1.03125l0.96875 0l0 -1.921875l1.3125 -0.796875l0 2.71875l1.328125 0l0 1.03125l-1.328125 0l0 4.546875q0 0.5625 0.0703125 0.7265625q0.0703125 0.1640625 0.2265625 0.2578125q0.15625 0.09375 0.4375 0.09375q0.234375 0 0.59375 -0.046875zm6.2594604 0.21875q-0.734375 0.609375 -1.40625 0.8671875q-0.671875 0.2578125 -1.453125 0.2578125q-1.28125 0 -1.96875 -0.625q-0.6875 -0.625 -0.6875 -1.59375q0 -0.578125 0.2578125 -1.046875q0.2578125 -0.46875 0.6796875 -0.7578125q0.421875 -0.2890625 0.953125 -0.4296875q0.375 -0.109375 1.171875 -0.203125q1.59375 -0.1875 2.34375 -0.453125q0.015625 -0.265625 0.015625 -0.34375q0 -0.8125 -0.375 -1.140625q-0.515625 -0.4375 -1.5 -0.4375q-0.9375 0 -1.3828125 0.3203125q-0.4453125 0.3203125 -0.6484375 1.1484375l-1.296875 -0.171875q0.171875 -0.828125 0.578125 -1.3359375q0.40625 -0.5078125 1.171875 -0.78125q0.765625 -0.2734375 1.765625 -0.2734375q1.0 0 1.6171875 0.234375q0.6171875 0.234375 0.9140625 0.5859375q0.296875 0.3515625 0.40625 0.8984375q0.0625 0.34375 0.0625 1.21875l0 1.75q0 1.84375 0.0859375 2.328125q0.0859375 0.484375 0.3359375 0.9375l-1.375 0q-0.203125 -0.40625 -0.265625 -0.953125zm-0.109375 -2.953125q-0.71875 0.296875 -2.15625 0.5q-0.8125 0.125 -1.1484375 0.265625q-0.3359375 0.140625 -0.515625 0.421875q-0.1796875 0.28125 -0.1796875 0.625q0 0.53125 0.3984375 0.8828125q0.3984375 0.3515625 1.1640625 0.3515625q0.765625 0 1.359375 -0.3359375q0.59375 -0.3359375 0.875 -0.9140625q0.203125 -0.4375 0.203125 -1.3125l0 -0.484375zm3.166748 3.90625l0 -7.78125l1.1875 0l0 1.1875q0.453125 -0.828125 0.84375 -1.09375q0.390625 -0.265625 0.84375 -0.265625q0.671875 0 1.359375 0.421875l-0.453125 1.21875q-0.484375 -0.28125 -0.96875 -0.28125q-0.4375 0 -0.78125 0.2578125q-0.34375 0.2578125 -0.484375 0.7265625q-0.21875 0.703125 -0.21875 1.53125l0 4.078125l-1.328125 0zm7.7868958 -1.171875l0.1875 1.15625q-0.5625 0.125 -1.0 0.125q-0.71875 0 -1.1171875 -0.234375q-0.3984375 -0.234375 -0.5546875 -0.6015625q-0.15625 -0.3671875 -0.15625 -1.5546875l0 -4.46875l-0.96875 0l0 -1.03125l0.96875 0l0 -1.921875l1.3125 -0.796875l0 2.71875l1.328125 0l0 1.03125l-1.328125 0l0 4.546875q0 0.5625 0.0703125 0.7265625q0.0703125 0.1640625 0.2265625 0.2578125q0.15625 0.09375 0.4375 0.09375q0.234375 0 0.59375 -0.046875zm1.1969604 -8.046875l0 -1.515625l1.3125 0l0 1.515625l-1.3125 0zm0 9.21875l0 -7.78125l1.3125 0l0 7.78125l-1.3125 0zm3.2405396 0l0 -7.78125l1.1875 0l0 1.109375q0.859375 -1.28125 2.484375 -1.28125q0.703125 0 1.2890625 0.25q0.5859375 0.25 0.8828125 0.6640625q0.296875 0.4140625 0.40625 0.9765625q0.078125 0.359375 0.078125 1.28125l0 4.78125l-1.328125 0l0 -4.734375q0 -0.796875 -0.1484375 -1.1953125q-0.1484375 -0.3984375 -0.5390625 -0.640625q-0.390625 -0.2421875 -0.921875 -0.2421875q-0.84375 0 -1.453125 0.53125q-0.609375 0.53125 -0.609375 2.03125l0 4.25l-1.328125 0zm7.9167175 0.640625l1.28125 0.1875q0.078125 0.59375 0.4375 0.875q0.5 0.359375 1.34375 0.359375q0.921875 0 1.421875 -0.3671875q0.5 -0.3671875 0.671875 -1.0234375q0.09375 -0.40625 0.09375 -1.6875q-0.859375 1.015625 -2.15625 1.015625q-1.609375 0 -2.484375 -1.15625q-0.875 -1.15625 -0.875 -2.78125q0 -1.109375 0.40625 -2.046875q0.40625 -0.9375 1.1640625 -1.453125q0.7578125 -0.515625 1.8046875 -0.515625q1.375 0 2.265625 1.109375l0 -0.9375l1.21875 0l0 6.71875q0 1.828125 -0.375 2.5859375q-0.375 0.7578125 -1.171875 1.1953125q-0.796875 0.4375 -1.96875 0.4375q-1.390625 0 -2.25 -0.625q-0.859375 -0.625 -0.828125 -1.890625zm1.09375 -4.671875q0 1.53125 0.6015625 2.234375q0.6015625 0.703125 1.5234375 0.703125q0.90625 0 1.5234375 -0.6953125q0.6171875 -0.6953125 0.6171875 -2.1953125q0 -1.421875 -0.6328125 -2.1484375q-0.6328125 -0.7265625 -1.5234375 -0.7265625q-0.890625 0 -1.5 0.7109375q-0.609375 0.7109375 -0.609375 2.1171875z" fill-rule="nonzero"></path><path stroke="#000000" stroke-width="2.0" stroke-linejoin="round" stroke-linecap="butt" d="m593.5736 375.02945l-160.42627 -80.66803" fill-rule="evenodd"></path><path fill="#000000" stroke="#000000" stroke-width="2.0" stroke-linecap="butt" d="m434.6314 291.41006l-9.592834 -1.1260376l6.624756 7.0287476z" fill-rule="evenodd"></path><path stroke="#000000" stroke-width="2.0" stroke-linejoin="round" stroke-linecap="butt" d="m337.5736 288.97055l-121.114395 79.47534" fill-rule="evenodd"></path><path fill="#000000" stroke="#000000" stroke-width="2.0" stroke-linecap="butt" d="m214.64684 365.684l-5.77594 7.7413635l9.400681 -2.2175293z" fill-rule="evenodd"></path><path fill="#000000" d="m491.77734 320.96094l0 -8.59375l1.125 0l0 8.59375l-1.125 0zm2.9746094 0l0 -8.59375l1.0625 0l0 8.59375l-1.0625 0zm2.6660156 0l0 -8.59375l1.0625 0l0 8.59375l-1.0625 0zm6.9472656 -2.0l1.09375 0.125q-0.25 0.953125 -0.953125 1.484375q-0.703125 0.53125 -1.78125 0.53125q-1.359375 0 -2.1640625 -0.84375q-0.8046875 -0.84375 -0.8046875 -2.359375q0 -1.5625 0.8125 -2.4296875q0.8125 -0.8671875 2.09375 -0.8671875q1.25 0 2.0390625 0.84375q0.7890625 0.84375 0.7890625 2.390625q0 0.09375 0 0.28125l-4.640625 0q0.0625 1.03125 0.578125 1.5703125q0.515625 0.5390625 1.296875 0.5390625q0.578125 0 0.9921875 -0.3046875q0.4140625 -0.3046875 0.6484375 -0.9609375zm-3.453125 -1.703125l3.46875 0q-0.0625 -0.796875 -0.390625 -1.1875q-0.515625 -0.609375 -1.3125 -0.609375q-0.734375 0 -1.2265625 0.484375q-0.4921875 0.484375 -0.5390625 1.3125zm5.673828 4.21875l1.03125 0.15625q0.0625 0.46875 0.359375 0.6875q0.390625 0.296875 1.0625 0.296875q0.734375 0 1.1328125 -0.296875q0.3984375 -0.296875 0.5390625 -0.8125q0.09375 -0.328125 0.078125 -1.359375q-0.6875 0.8125 -1.71875 0.8125q-1.28125 0 -1.984375 -0.9296875q-0.703125 -0.9296875 -0.703125 -2.2109375q0 -0.890625 0.3203125 -1.6484375q0.3203125 -0.7578125 0.9296875 -1.1640625q0.609375 -0.40625 1.4375 -0.40625q1.109375 0 1.828125 0.890625l0 -0.75l0.96875 0l0 5.375q0 1.453125 -0.296875 2.0625q-0.296875 0.609375 -0.9375 0.9609375q-0.640625 0.3515625 -1.578125 0.3515625q-1.109375 0 -1.796875 -0.5q-0.6875 -0.5 -0.671875 -1.515625zm0.875 -3.734375q0 1.21875 0.484375 1.78125q0.484375 0.5625 1.21875 0.5625q0.734375 0 1.2265625 -0.5625q0.4921875 -0.5625 0.4921875 -1.75q0 -1.140625 -0.5078125 -1.71875q-0.5078125 -0.578125 -1.2265625 -0.578125q-0.703125 0 -1.1953125 0.5703125q-0.4921875 0.5703125 -0.4921875 1.6953125zm10.064453 2.453125q-0.59375 0.5 -1.1328125 0.703125q-0.5390625 0.203125 -1.1640625 0.203125q-1.03125 0 -1.578125 -0.5q-0.546875 -0.5 -0.546875 -1.28125q0 -0.453125 0.203125 -0.8359375q0.203125 -0.3828125 0.546875 -0.609375q0.34375 -0.2265625 0.765625 -0.3359375q0.296875 -0.09375 0.9375 -0.171875q1.265625 -0.140625 1.875 -0.359375q0 -0.21875 0 -0.265625q0 -0.65625 -0.296875 -0.921875q-0.40625 -0.34375 -1.203125 -0.34375q-0.734375 0 -1.09375 0.2578125q-0.359375 0.2578125 -0.53125 0.9140625l-1.03125 -0.140625q0.140625 -0.65625 0.46875 -1.0625q0.328125 -0.40625 0.9375 -0.625q0.609375 -0.21875 1.40625 -0.21875q0.796875 0 1.296875 0.1875q0.5 0.1875 0.734375 0.46875q0.234375 0.28125 0.328125 0.71875q0.046875 0.265625 0.046875 0.96875l0 1.40625q0 1.46875 0.0703125 1.859375q0.0703125 0.390625 0.2734375 0.75l-1.109375 0q-0.15625 -0.328125 -0.203125 -0.765625zm-0.09375 -2.359375q-0.578125 0.234375 -1.71875 0.40625q-0.65625 0.09375 -0.921875 0.2109375q-0.265625 0.1171875 -0.4140625 0.3359375q-0.1484375 0.21875 -0.1484375 0.5q0 0.421875 0.3203125 0.703125q0.3203125 0.28125 0.9296875 0.28125q0.609375 0 1.0859375 -0.265625q0.4765625 -0.265625 0.6953125 -0.734375q0.171875 -0.359375 0.171875 -1.046875l0 -0.390625zm2.6738281 3.125l0 -8.59375l1.0625 0l0 8.59375l-1.0625 0zm5.8125 -4.1875q0 -2.140625 1.1484375 -3.3515625q1.1484375 -1.2109375 2.9609375 -1.2109375q1.203125 0 2.15625 0.5703125q0.953125 0.5703125 1.453125 1.5859375q0.5 1.015625 0.5 2.3125q0 1.296875 -0.53125 2.328125q-0.53125 1.03125 -1.4921875 1.5625q-0.9609375 0.53125 -2.0859375 0.53125q-1.21875 0 -2.171875 -0.5859375q-0.953125 -0.5859375 -1.4453125 -1.59375q-0.4921875 -1.0078125 -0.4921875 -2.1484375zm1.171875 0.015625q0 1.5625 0.8359375 2.453125q0.8359375 0.890625 2.1015625 0.890625q1.28125 0 2.109375 -0.8984375q0.828125 -0.8984375 0.828125 -2.5703125q0 -1.046875 -0.3515625 -1.828125q-0.3515625 -0.78125 -1.0390625 -1.2109375q-0.6875 -0.4296875 -1.53125 -0.4296875q-1.203125 0 -2.078125 0.828125q-0.875 0.828125 -0.875 2.765625zm8.380859 6.5625l0 -8.609375l0.953125 0l0 0.796875q0.34375 -0.46875 0.7734375 -0.703125q0.4296875 -0.234375 1.0390625 -0.234375q0.796875 0 1.40625 0.40625q0.609375 0.40625 0.9140625 1.15625q0.3046875 0.75 0.3046875 1.640625q0 0.953125 -0.3359375 1.71875q-0.3359375 0.765625 -0.9921875 1.171875q-0.65625 0.40625 -1.375 0.40625q-0.53125 0 -0.953125 -0.2265625q-0.421875 -0.2265625 -0.6875 -0.5546875l0 3.03125l-1.046875 0zm0.953125 -5.46875q0 1.203125 0.484375 1.7734375q0.484375 0.5703125 1.171875 0.5703125q0.703125 0 1.203125 -0.59375q0.5 -0.59375 0.5 -1.84375q0 -1.1875 -0.484375 -1.7734375q-0.484375 -0.5859375 -1.171875 -0.5859375q-0.671875 0 -1.1875 0.625q-0.515625 0.625 -0.515625 1.828125z" fill-rule="nonzero"></path><path fill="#000000" d="m246.59766 319.96094l0 -8.59375l3.8125 0q1.15625 0 1.75 0.234375q0.59375 0.234375 0.953125 0.8203125q0.359375 0.5859375 0.359375 1.2890625q0 0.921875 -0.59375 1.546875q-0.59375 0.625 -1.828125 0.796875q0.453125 0.21875 0.6875 0.421875q0.5 0.453125 0.9375 1.140625l1.5 2.34375l-1.4375 0l-1.125 -1.78125q-0.5 -0.78125 -0.8203125 -1.1875q-0.3203125 -0.40625 -0.578125 -0.5703125q-0.2578125 -0.1640625 -0.5234375 -0.2421875q-0.1875 -0.03125 -0.625 -0.03125l-1.328125 0l0 3.8125l-1.140625 0zm1.140625 -4.796875l2.453125 0q0.765625 0 1.2109375 -0.1640625q0.4453125 -0.1640625 0.671875 -0.515625q0.2265625 -0.3515625 0.2265625 -0.7734375q0 -0.609375 -0.4453125 -1.0q-0.4453125 -0.390625 -1.3984375 -0.390625l-2.71875 0l0 2.84375zm11.634766 2.796875l1.09375 0.125q-0.25 0.953125 -0.953125 1.484375q-0.703125 0.53125 -1.78125 0.53125q-1.359375 0 -2.1640625 -0.84375q-0.8046875 -0.84375 -0.8046875 -2.359375q0 -1.5625 0.8125 -2.4296875q0.8125 -0.8671875 2.09375 -0.8671875q1.25 0 2.0390625 0.84375q0.7890625 0.84375 0.7890625 2.390625q0 0.09375 0 0.28125l-4.640625 0q0.0625 1.03125 0.578125 1.5703125q0.515625 0.5390625 1.296875 0.5390625q0.578125 0 0.9921875 -0.3046875q0.4140625 -0.3046875 0.6484375 -0.9609375zm-3.453125 -1.703125l3.46875 0q-0.0625 -0.796875 -0.390625 -1.1875q-0.515625 -0.609375 -1.3125 -0.609375q-0.734375 0 -1.2265625 0.484375q-0.4921875 0.484375 -0.5390625 1.3125zm7.595703 3.703125l-2.359375 -6.21875l1.109375 0l1.34375 3.71875q0.203125 0.609375 0.390625 1.25q0.140625 -0.484375 0.390625 -1.171875l1.390625 -3.796875l1.078125 0l-2.359375 6.21875l-0.984375 0zm4.28125 -7.375l0 -1.21875l1.0625 0l0 1.21875l-1.0625 0zm0 7.375l0 -6.21875l1.0625 0l0 6.21875l-1.0625 0zm4.3847656 0l-2.359375 -6.21875l1.109375 0l1.34375 3.71875q0.203125 0.609375 0.390625 1.25q0.140625 -0.484375 0.390625 -1.171875l1.390625 -3.796875l1.078125 0l-2.359375 6.21875l-0.984375 0zm8.53125 -2.0l1.09375 0.125q-0.25 0.953125 -0.953125 1.484375q-0.703125 0.53125 -1.78125 0.53125q-1.359375 0 -2.1640625 -0.84375q-0.8046875 -0.84375 -0.8046875 -2.359375q0 -1.5625 0.8125 -2.4296875q0.8125 -0.8671875 2.09375 -0.8671875q1.25 0 2.0390625 0.84375q0.7890625 0.84375 0.7890625 2.390625q0 0.09375 0 0.28125l-4.640625 0q0.0625 1.03125 0.578125 1.5703125q0.515625 0.5390625 1.296875 0.5390625q0.578125 0 0.9921875 -0.3046875q0.4140625 -0.3046875 0.6484375 -0.9609375zm-3.453125 -1.703125l3.46875 0q-0.0625 -0.796875 -0.390625 -1.1875q-0.515625 -0.609375 -1.3125 -0.609375q-0.734375 0 -1.2265625 0.484375q-0.4921875 0.484375 -0.5390625 1.3125z" fill-rule="nonzero"></path><path stroke="#000000" stroke-width="2.0" stroke-linejoin="round" stroke-linecap="butt" d="m593.5736 408.97055l-57.470154 91.88501" fill-rule="evenodd"></path><path fill="#000000" stroke="#000000" stroke-width="2.0" stroke-linecap="butt" d="m533.3027 499.1038l-2.012146 9.446777l7.6137085 -5.943268z" fill-rule="evenodd"></path><path stroke="#000000" stroke-width="2.0" stroke-linejoin="round" stroke-linecap="butt" d="m417.70416 416.1071l-1.1374512 -0.7197876" fill-rule="evenodd"></path><path fill="#000000" stroke="#000000" stroke-width="2.0" stroke-linecap="butt" d="m418.33316 412.5958l-9.436035 -2.061798l5.903137 7.644806z" fill-rule="evenodd"></path><path stroke="#000000" stroke-width="2.0" stroke-linejoin="round" stroke-linecap="butt" d="m633.7997 436.40256l0.91363525 -8.471741" fill-rule="evenodd"></path><path fill="#000000" stroke="#000000" stroke-width="2.0" stroke-linecap="butt" d="m637.99774 428.28503l-2.3112183 -9.378082l-4.2576294 8.669647z" fill-rule="evenodd"></path><path stroke="#000000" stroke-width="2.0" stroke-linejoin="round" stroke-linecap="butt" d="m422.2599 511.02945l-51.987915 -84.79901" fill-rule="evenodd"></path><path fill="#000000" stroke="#000000" stroke-width="2.0" stroke-linecap="butt" d="m373.08832 424.50385l-7.56015 -6.0112l1.9274902 9.4644165z" fill-rule="evenodd"></path><path stroke="#000000" stroke-width="2.0" stroke-linejoin="round" stroke-linecap="butt" d="m364.0 416.0l51.987915 84.79901" fill-rule="evenodd"></path><path fill="#000000" stroke="#000000" stroke-width="2.0" stroke-linecap="butt" d="m413.17157 502.5256l7.56015 6.0112l-1.9275208 -9.4644165z" fill-rule="evenodd"></path><path stroke="#000000" stroke-width="2.0" stroke-linejoin="round" stroke-linecap="butt" d="m529.7401 511.02945l57.470154 -91.88501" fill-rule="evenodd"></path><path fill="#000000" stroke="#000000" stroke-width="2.0" stroke-linecap="butt" d="m590.01105 420.8962l2.012146 -9.446777l-7.6136475 5.943268z" fill-rule="evenodd"></path><path stroke="#000000" stroke-width="2.0" stroke-linejoin="round" stroke-linecap="butt" d="m163.01033 440.0101l0.49546814 -12.020264" fill-rule="evenodd"></path><path fill="#000000" stroke="#000000" stroke-width="2.0" stroke-linecap="butt" d="m166.80646 428.12585l-2.9268646 -9.204529l-3.6744537 8.932434z" fill-rule="evenodd"></path><path stroke="#000000" stroke-width="2.0" stroke-linejoin="round" stroke-linecap="butt" d="m662.0051 409.98572c0.44781494 -19.138977 13.678162 -36.831116 35.22107 -47.09906c21.542969 -10.267944 48.520813 -11.740112 71.81909 -3.919159" fill-rule="nonzero"></path><path fill="#cfe2f3" stroke="#000000" stroke-width="2.0" stroke-linejoin="round" stroke-linecap="butt" d="m576.0 392.0l0 0c0 -13.254822 26.862915 -24.0 60.0 -24.0l0 0c33.137085 0 60.0 10.745178 60.0 24.0l0 0c0 13.254822 -26.862915 24.0 -60.0 24.0l0 0c-33.137085 0 -60.0 -10.745178 -60.0 -24.0z" fill-rule="nonzero"></path><path fill="#000000" d="m609.8739 396.83594l0 -10.734375l4.765625 0q1.4375 0 2.1875 0.2890625q0.75 0.2890625 1.1953125 1.0234375q0.4453125 0.734375 0.4453125 1.609375q0 1.140625 -0.7421875 1.9296875q-0.7421875 0.7890625 -2.2890625 0.9921875q0.5625 0.28125 0.859375 0.546875q0.625 0.5625 1.1875 1.421875l1.859375 2.921875l-1.78125 0l-1.421875 -2.234375q-0.625 -0.96875 -1.03125 -1.4765625q-0.40625 -0.5078125 -0.71875 -0.71875q-0.3125 -0.2109375 -0.640625 -0.2890625q-0.25 -0.046875 -0.796875 -0.046875l-1.65625 0l0 4.765625l-1.421875 0zm1.421875 -6.0l3.0625 0q0.96875 0 1.5234375 -0.203125q0.5546875 -0.203125 0.8359375 -0.640625q0.28125 -0.4375 0.28125 -0.96875q0 -0.75 -0.5546875 -1.2421875q-0.5546875 -0.4921875 -1.7421875 -0.4921875l-3.40625 0l0 3.546875zm14.08429 6.0l0 -1.140625q-0.921875 1.3125 -2.46875 1.3125q-0.6875 0 -1.2890625 -0.265625q-0.6015625 -0.265625 -0.890625 -0.6640625q-0.2890625 -0.3984375 -0.3984375 -0.9765625q-0.09375 -0.375 -0.09375 -1.21875l0 -4.828125l1.328125 0l0 4.3125q0 1.03125 0.078125 1.390625q0.125 0.53125 0.5234375 0.828125q0.3984375 0.296875 0.9921875 0.296875q0.59375 0 1.1171875 -0.3046875q0.5234375 -0.3046875 0.7421875 -0.828125q0.21875 -0.5234375 0.21875 -1.5234375l0 -4.171875l1.3125 0l0 7.78125l-1.171875 0zm3.041687 0l0 -7.78125l1.1875 0l0 1.109375q0.859375 -1.28125 2.484375 -1.28125q0.703125 0 1.2890625 0.25q0.5859375 0.25 0.8828125 0.6640625q0.296875 0.4140625 0.40625 0.9765625q0.078125 0.359375 0.078125 1.28125l0 4.78125l-1.328125 0l0 -4.734375q0 -0.796875 -0.1484375 -1.1953125q-0.1484375 -0.3984375 -0.5390625 -0.640625q-0.390625 -0.2421875 -0.921875 -0.2421875q-0.84375 0 -1.453125 0.53125q-0.609375 0.53125 -0.609375 2.03125l0 4.25l-1.328125 0zm8.151123 0l0 -7.78125l1.1875 0l0 1.109375q0.859375 -1.28125 2.484375 -1.28125q0.703125 0 1.2890625 0.25q0.5859375 0.25 0.8828125 0.6640625q0.296875 0.4140625 0.40625 0.9765625q0.078125 0.359375 0.078125 1.28125l0 4.78125l-1.328125 0l0 -4.734375q0 -0.796875 -0.1484375 -1.1953125q-0.1484375 -0.3984375 -0.5390625 -0.640625q-0.390625 -0.2421875 -0.921875 -0.2421875q-0.84375 0 -1.453125 0.53125q-0.609375 0.53125 -0.609375 2.03125l0 4.25l-1.328125 0zm8.166748 -9.21875l0 -1.515625l1.3125 0l0 1.515625l-1.3125 0zm0 9.21875l0 -7.78125l1.3125 0l0 7.78125l-1.3125 0zm3.2405396 0l0 -7.78125l1.1875 0l0 1.109375q0.859375 -1.28125 2.484375 -1.28125q0.703125 0 1.2890625 0.25q0.5859375 0.25 0.8828125 0.6640625q0.296875 0.4140625 0.40625 0.9765625q0.078125 0.359375 0.078125 1.28125l0 4.78125l-1.328125 0l0 -4.734375q0 -0.796875 -0.1484375 -1.1953125q-0.1484375 -0.3984375 -0.5390625 -0.640625q-0.390625 -0.2421875 -0.921875 -0.2421875q-0.84375 0 -1.453125 0.53125q-0.609375 0.53125 -0.609375 2.03125l0 4.25l-1.328125 0zm7.916687 0.640625l1.28125 0.1875q0.078125 0.59375 0.4375 0.875q0.5 0.359375 1.34375 0.359375q0.921875 0 1.421875 -0.3671875q0.5 -0.3671875 0.671875 -1.0234375q0.09375 -0.40625 0.09375 -1.6875q-0.859375 1.015625 -2.15625 1.015625q-1.609375 0 -2.484375 -1.15625q-0.875 -1.15625 -0.875 -2.78125q0 -1.109375 0.40625 -2.046875q0.40625 -0.9375 1.1640625 -1.453125q0.7578125 -0.515625 1.8046875 -0.515625q1.375 0 2.265625 1.109375l0 -0.9375l1.21875 0l0 6.71875q0 1.828125 -0.375 2.5859375q-0.375 0.7578125 -1.171875 1.1953125q-0.796875 0.4375 -1.96875 0.4375q-1.390625 0 -2.25 -0.625q-0.859375 -0.625 -0.828125 -1.890625zm1.09375 -4.671875q0 1.53125 0.6015625 2.234375q0.6015625 0.703125 1.5234375 0.703125q0.90625 0 1.5234375 -0.6953125q0.6171875 -0.6953125 0.6171875 -2.1953125q0 -1.421875 -0.6328125 -2.1484375q-0.6328125 -0.7265625 -1.5234375 -0.7265625q-0.890625 0 -1.5 0.7109375q-0.609375 0.7109375 -0.609375 2.1171875z" fill-rule="nonzero"></path><path fill="#000000" d="m721.90753 343.96094l0 -8.59375l3.25 0q0.84375 0 1.296875 0.078125q0.640625 0.109375 1.0703125 0.40625q0.4296875 0.296875 0.6875 0.828125q0.2578125 0.53125 0.2578125 1.171875q0 1.09375 -0.6953125 1.8515625q-0.6953125 0.7578125 -2.5234375 0.7578125l-2.203125 0l0 3.5l-1.140625 0zm1.140625 -4.5l2.21875 0q1.109375 0 1.5703125 -0.4140625q0.4609375 -0.4140625 0.4609375 -1.1640625q0 -0.53125 -0.2734375 -0.9140625q-0.2734375 -0.3828125 -0.7109375 -0.5078125q-0.296875 -0.078125 -1.0625 -0.078125l-2.203125 0l0 3.078125zm6.3476562 1.390625q0 -1.734375 0.953125 -2.5625q0.796875 -0.6875 1.953125 -0.6875q1.28125 0 2.1015625 0.8359375q0.8203125 0.8359375 0.8203125 2.3203125q0 1.203125 -0.359375 1.890625q-0.359375 0.6875 -1.0546875 1.0703125q-0.6953125 0.3828125 -1.5078125 0.3828125q-1.296875 0 -2.1015625 -0.8359375q-0.8046875 -0.8359375 -0.8046875 -2.4140625zm1.078125 0q0 1.1875 0.5234375 1.78125q0.5234375 0.59375 1.3046875 0.59375q0.796875 0 1.3125 -0.59375q0.515625 -0.59375 0.515625 -1.8125q0 -1.15625 -0.5234375 -1.75q-0.5234375 -0.59375 -1.3046875 -0.59375q-0.78125 0 -1.3046875 0.5859375q-0.5234375 0.5859375 -0.5234375 1.7890625zm7.126953 3.109375l-1.90625 -6.21875l1.09375 0l0.984375 3.59375l0.37493896 1.328125q0.03125 -0.09375 0.328125 -1.28125l0.984375 -3.640625l1.078125 0l0.9375 3.609375l0.3125 1.1875l0.359375 -1.203125l1.0625 -3.59375l1.03125 0l-1.953125 6.21875l-1.09375 0l-0.984375 -3.734375l-0.25 -1.046875l-1.25 4.78125l-1.109314 0zm11.77533 -2.0l1.09375 0.125q-0.25 0.953125 -0.953125 1.484375q-0.703125 0.53125 -1.78125 0.53125q-1.359375 0 -2.1640625 -0.84375q-0.8046875 -0.84375 -0.8046875 -2.359375q0 -1.5625 0.8125 -2.4296875q0.8125 -0.8671875 2.09375 -0.8671875q1.25 0 2.0390625 0.84375q0.7890625 0.84375 0.7890625 2.390625q0 0.09375 0 0.28125l-4.640625 0q0.0625 1.03125 0.578125 1.5703125q0.515625 0.5390625 1.296875 0.5390625q0.578125 0 0.9921875 -0.3046875q0.4140625 -0.3046875 0.6484375 -0.9609375zm-3.453125 -1.703125l3.46875 0q-0.0625 -0.796875 -0.390625 -1.1875q-0.515625 -0.609375 -1.3125 -0.609375q-0.734375 0 -1.2265625 0.484375q-0.4921875 0.484375 -0.5390625 1.3125zm5.861328 3.703125l0 -6.21875l0.953125 0l0 0.9375q0.359375 -0.65625 0.6640625 -0.8671875q0.3046875 -0.2109375 0.6796875 -0.2109375q0.53125 0 1.078125 0.328125l-0.359375 0.984375q-0.390625 -0.234375 -0.765625 -0.234375q-0.359375 0 -0.6328125 0.2109375q-0.2734375 0.2109375 -0.3828125 0.5859375q-0.1875 0.5625 -0.1875 1.21875l0 3.265625l-1.046875 0zm3.7929688 -4.1875q0 -2.140625 1.1484375 -3.3515625q1.1484375 -1.2109375 2.9609375 -1.2109375q1.203125 0 2.15625 0.5703125q0.953125 0.5703125 1.453125 1.5859375q0.5 1.015625 0.5 2.3125q0 1.296875 -0.53125 2.328125q-0.53125 1.03125 -1.4921875 1.5625q-0.9609375 0.53125 -2.0859375 0.53125q-1.21875 0 -2.171875 -0.5859375q-0.953125 -0.5859375 -1.4453125 -1.59375q-0.4921875 -1.0078125 -0.4921875 -2.1484375zm1.171875 0.015625q0 1.5625 0.8359375 2.453125q0.8359375 0.890625 2.1015625 0.890625q1.28125 0 2.109375 -0.8984375q0.828125 -0.8984375 0.828125 -2.5703125q0 -1.046875 -0.3515625 -1.828125q-0.3515625 -0.78125 -1.0390625 -1.2109375q-0.6875 -0.4296875 -1.53125 -0.4296875q-1.203125 0 -2.078125 0.828125q-0.875 0.828125 -0.875 2.765625zm8.630859 4.171875l0 -5.40625l-0.9375 0l0 -0.8125l0.9375 0l0 -0.671875q0 -0.625 0.109375 -0.921875q0.15625 -0.421875 0.5390625 -0.671875q0.3828125 -0.25 1.0703125 -0.25q0.453125 0 0.984375 0.109375l-0.15625 0.90625q-0.328125 -0.046875 -0.625 -0.046875q-0.484375 0 -0.6796875 0.203125q-0.1953125 0.203125 -0.1953125 0.765625l0 0.578125l1.21875 0l0 0.8125l-1.21875 0l0 5.40625l-1.046875 0zm3.3339844 0l0 -5.40625l-0.9375 0l0 -0.8125l0.9375 0l0 -0.671875q0 -0.625 0.109375 -0.921875q0.15625 -0.421875 0.5390625 -0.671875q0.3828125 -0.25 1.0703125 -0.25q0.453125 0 0.984375 0.109375l-0.15625 0.90625q-0.328125 -0.046875 -0.625 -0.046875q-0.484375 0 -0.6796875 0.203125q-0.1953125 0.203125 -0.1953125 0.765625l0 0.578125l1.21875 0l0 0.8125l-1.21875 0l0 5.40625l-1.046875 0z" fill-rule="nonzero"></path><path stroke="#000000" stroke-width="2.0" stroke-linejoin="round" stroke-linecap="butt" d="m873.3456 400.49557c23.906738 78.75275 -29.088257 158.76822 -137.02802 206.89438c-107.9397 48.1261 -252.4357 56.164124 -373.62018 20.783752c-121.184494 -35.380432 -198.41258 -108.151855 -199.68704 -188.16364" fill-rule="nonzero"></path><path fill="#cfe2f3" stroke="#000000" stroke-width="2.0" stroke-linejoin="round" stroke-linecap="butt" d="m784.0 392.0l0 0c0 -13.254822 26.862915 -24.0 60.0 -24.0l0 0c33.137085 0 60.0 10.745178 60.0 24.0l0 0c0 13.254822 -26.862915 24.0 -60.0 24.0l0 0c-33.137085 0 -60.0 -10.745178 -60.0 -24.0z" fill-rule="nonzero"></path><path fill="#000000" d="m815.74225 393.3828l1.34375 -0.109375q0.09375 0.796875 0.4453125 1.3125q0.3515625 0.515625 1.078125 0.8359375q0.7265625 0.3203125 1.6484375 0.3203125q0.8125 0 1.4375 -0.2421875q0.625 -0.2421875 0.9296875 -0.6640625q0.3046875 -0.421875 0.3046875 -0.921875q0 -0.5 -0.296875 -0.875q-0.296875 -0.375 -0.96875 -0.640625q-0.4375 -0.15625 -1.9140625 -0.515625q-1.4765625 -0.359375 -2.0703125 -0.671875q-0.765625 -0.40625 -1.1484375 -1.0q-0.3828125 -0.59375 -0.3828125 -1.34375q0 -0.8125 0.4609375 -1.515625q0.4609375 -0.703125 1.3515625 -1.0703125q0.890625 -0.3671875 1.96875 -0.3671875q1.203125 0 2.109375 0.3828125q0.90625 0.3828125 1.3984375 1.1328125q0.4921875 0.75 0.5390625 1.6875l-1.375 0.109375q-0.109375 -1.015625 -0.7421875 -1.5390625q-0.6328125 -0.5234375 -1.8671875 -0.5234375q-1.28125 0 -1.875 0.4765625q-0.59375 0.4765625 -0.59375 1.1328125q0 0.578125 0.421875 0.953125q0.40625 0.375 2.140625 0.765625q1.734375 0.390625 2.375 0.6875q0.9375 0.4375 1.3828125 1.1015625q0.4453125 0.6640625 0.4453125 1.5234375q0 0.859375 -0.4921875 1.6171875q-0.4921875 0.7578125 -1.40625 1.1796875q-0.9140625 0.421875 -2.0703125 0.421875q-1.453125 0 -2.4375 -0.4296875q-0.984375 -0.4296875 -1.546875 -1.28125q-0.5625 -0.8515625 -0.59375 -1.9296875zm12.978699 2.28125l0.1875 1.15625q-0.5625 0.125 -1.0 0.125q-0.71875 0 -1.1171875 -0.234375q-0.3984375 -0.234375 -0.5546875 -0.6015625q-0.15625 -0.3671875 -0.15625 -1.5546875l0 -4.46875l-0.96875 0l0 -1.03125l0.96875 0l0 -1.921875l1.3125 -0.796875l0 2.71875l1.328125 0l0 1.03125l-1.328125 0l0 4.546875q0 0.5625 0.0703125 0.7265625q0.0703125 0.1640625 0.2265625 0.2578125q0.15625 0.09375 0.4375 0.09375q0.234375 0 0.59375 -0.046875zm0.6970215 -2.71875q0 -2.15625 1.203125 -3.203125q1.0 -0.859375 2.4375 -0.859375q1.609375 0 2.625 1.046875q1.015625 1.046875 1.015625 2.90625q0 1.5 -0.4453125 2.359375q-0.4453125 0.859375 -1.3125 1.3359375q-0.8671875 0.4765625 -1.8828125 0.4765625q-1.625 0 -2.6328125 -1.046875q-1.0078125 -1.046875 -1.0078125 -3.015625zm1.359375 0q0 1.5 0.6484375 2.2421875q0.6484375 0.7421875 1.6328125 0.7421875q0.984375 0 1.640625 -0.75q0.65625 -0.75 0.65625 -2.28125q0 -1.4375 -0.65625 -2.1796875q-0.65625 -0.7421875 -1.640625 -0.7421875q-0.984375 0 -1.6328125 0.734375q-0.6484375 0.734375 -0.6484375 2.234375zm7.276062 6.875l0 -10.765625l1.203125 0l0 1.015625q0.421875 -0.59375 0.9609375 -0.890625q0.5390625 -0.296875 1.3046875 -0.296875q0.984375 0 1.75 0.515625q0.765625 0.515625 1.1484375 1.4453125q0.3828125 0.9296875 0.3828125 2.0390625q0 1.203125 -0.421875 2.15625q-0.421875 0.953125 -1.2421875 1.4609375q-0.8203125 0.5078125 -1.7265625 0.5078125q-0.65625 0 -1.1796875 -0.2734375q-0.5234375 -0.2734375 -0.8515625 -0.7109375l0 3.796875l-1.328125 0zm1.203125 -6.828125q0 1.5 0.609375 2.21875q0.609375 0.71875 1.46875 0.71875q0.875 0 1.5 -0.7421875q0.625 -0.7421875 0.625 -2.3046875q0 -1.484375 -0.609375 -2.2265625q-0.609375 -0.7421875 -1.453125 -0.7421875q-0.84375 0 -1.4921875 0.7890625q-0.6484375 0.7890625 -0.6484375 2.2890625zm6.947998 6.828125l0 -10.765625l1.203125 0l0 1.015625q0.421875 -0.59375 0.9609375 -0.890625q0.5390625 -0.296875 1.3046875 -0.296875q0.984375 0 1.75 0.515625q0.765625 0.515625 1.1484375 1.4453125q0.3828125 0.9296875 0.3828125 2.0390625q0 1.203125 -0.421875 2.15625q-0.421875 0.953125 -1.2421875 1.4609375q-0.8203125 0.5078125 -1.7265625 0.5078125q-0.65625 0 -1.1796875 -0.2734375q-0.5234375 -0.2734375 -0.8515625 -0.7109375l0 3.796875l-1.328125 0zm1.203125 -6.828125q0 1.5 0.609375 2.21875q0.609375 0.71875 1.46875 0.71875q0.875 0 1.5 -0.7421875q0.625 -0.7421875 0.625 -2.3046875q0 -1.484375 -0.609375 -2.2265625q-0.609375 -0.7421875 -1.453125 -0.7421875q-0.84375 0 -1.4921875 0.7890625q-0.6484375 0.7890625 -0.6484375 2.2890625zm6.963623 -5.375l0 -1.515625l1.3125 0l0 1.515625l-1.3125 0zm0 9.21875l0 -7.78125l1.3125 0l0 7.78125l-1.3125 0zm3.2405396 0l0 -7.78125l1.1875 0l0 1.109375q0.859375 -1.28125 2.484375 -1.28125q0.703125 0 1.2890625 0.25q0.5859375 0.25 0.8828125 0.6640625q0.296875 0.4140625 0.40625 0.9765625q0.078125 0.359375 0.078125 1.28125l0 4.78125l-1.328125 0l0 -4.734375q0 -0.796875 -0.1484375 -1.1953125q-0.1484375 -0.3984375 -0.5390625 -0.640625q-0.390625 -0.2421875 -0.921875 -0.2421875q-0.84375 0 -1.453125 0.53125q-0.609375 0.53125 -0.609375 2.03125l0 4.25l-1.328125 0zm7.916687 0.640625l1.28125 0.1875q0.078125 0.59375 0.4375 0.875q0.5 0.359375 1.34375 0.359375q0.921875 0 1.421875 -0.3671875q0.5 -0.3671875 0.671875 -1.0234375q0.09375 -0.40625 0.09375 -1.6875q-0.859375 1.015625 -2.15625 1.015625q-1.609375 0 -2.484375 -1.15625q-0.875 -1.15625 -0.875 -2.78125q0 -1.109375 0.40625 -2.046875q0.40625 -0.9375 1.1640625 -1.453125q0.7578125 -0.515625 1.8046875 -0.515625q1.375 0 2.265625 1.109375l0 -0.9375l1.21875 0l0 6.71875q0 1.828125 -0.375 2.5859375q-0.375 0.7578125 -1.171875 1.1953125q-0.796875 0.4375 -1.96875 0.4375q-1.390625 0 -2.25 -0.625q-0.859375 -0.625 -0.828125 -1.890625zm1.09375 -4.671875q0 1.53125 0.6015625 2.234375q0.6015625 0.703125 1.5234375 0.703125q0.90625 0 1.5234375 -0.6953125q0.6171875 -0.6953125 0.6171875 -2.1953125q0 -1.421875 -0.6328125 -2.1484375q-0.6328125 -0.7265625 -1.5234375 -0.7265625q-0.890625 0 -1.5 0.7109375q-0.609375 0.7109375 -0.609375 2.1171875z" fill-rule="nonzero"></path><path fill="#cfe2f3" stroke="#000000" stroke-width="2.0" stroke-linejoin="round" stroke-linecap="butt" d="m104.0 392.0l0 0c0 -13.254822 26.862915 -24.0 60.0 -24.0l0 0c33.137085 0 60.0 10.745178 60.0 24.0l0 0c0 13.254822 -26.862915 24.0 -60.0 24.0l0 0c-33.137085 0 -60.0 -10.745178 -60.0 -24.0z" fill-rule="nonzero"></path><path fill="#000000" d="m137.37032 393.3828l1.34375 -0.109375q0.09375 0.796875 0.4453125 1.3125q0.3515625 0.515625 1.078125 0.8359375q0.7265625 0.3203125 1.6484375 0.3203125q0.8125 0 1.4375 -0.2421875q0.625 -0.2421875 0.9296875 -0.6640625q0.3046875 -0.421875 0.3046875 -0.921875q0 -0.5 -0.296875 -0.875q-0.296875 -0.375 -0.96875 -0.640625q-0.4375 -0.15625 -1.9140625 -0.515625q-1.4765625 -0.359375 -2.0703125 -0.671875q-0.765625 -0.40625 -1.1484375 -1.0q-0.3828125 -0.59375 -0.3828125 -1.34375q0 -0.8125 0.4609375 -1.515625q0.4609375 -0.703125 1.3515625 -1.0703125q0.890625 -0.3671875 1.96875 -0.3671875q1.203125 0 2.109375 0.3828125q0.90625 0.3828125 1.3984375 1.1328125q0.4921875 0.75 0.5390625 1.6875l-1.375 0.109375q-0.109375 -1.015625 -0.7421875 -1.5390625q-0.6328125 -0.5234375 -1.8671875 -0.5234375q-1.28125 0 -1.875 0.4765625q-0.59375 0.4765625 -0.59375 1.1328125q0 0.578125 0.421875 0.953125q0.40625 0.375 2.140625 0.765625q1.734375 0.390625 2.375 0.6875q0.9375 0.4375 1.3828125 1.1015625q0.4453125 0.6640625 0.4453125 1.5234375q0 0.859375 -0.4921875 1.6171875q-0.4921875 0.7578125 -1.40625 1.1796875q-0.9140625 0.421875 -2.0703125 0.421875q-1.453125 0 -2.4375 -0.4296875q-0.984375 -0.4296875 -1.546875 -1.28125q-0.5625 -0.8515625 -0.59375 -1.9296875zm12.978729 2.28125l0.1875 1.15625q-0.5625 0.125 -1.0 0.125q-0.71875 0 -1.1171875 -0.234375q-0.3984375 -0.234375 -0.5546875 -0.6015625q-0.15625 -0.3671875 -0.15625 -1.5546875l0 -4.46875l-0.96875 0l0 -1.03125l0.96875 0l0 -1.921875l1.3125 -0.796875l0 2.71875l1.328125 0l0 1.03125l-1.328125 0l0 4.546875q0 0.5625 0.0703125 0.7265625q0.0703125 0.1640625 0.2265625 0.2578125q0.15625 0.09375 0.4375 0.09375q0.234375 0 0.59375 -0.046875zm0.6969757 -2.71875q0 -2.15625 1.203125 -3.203125q1.0 -0.859375 2.4375 -0.859375q1.609375 0 2.625 1.046875q1.015625 1.046875 1.015625 2.90625q0 1.5 -0.4453125 2.359375q-0.4453125 0.859375 -1.3125 1.3359375q-0.8671875 0.4765625 -1.8828125 0.4765625q-1.625 0 -2.6328125 -1.046875q-1.0078125 -1.046875 -1.0078125 -3.015625zm1.359375 0q0 1.5 0.6484375 2.2421875q0.6484375 0.7421875 1.6328125 0.7421875q0.984375 0 1.640625 -0.75q0.65625 -0.75 0.65625 -2.28125q0 -1.4375 -0.65625 -2.1796875q-0.65625 -0.7421875 -1.640625 -0.7421875q-0.984375 0 -1.6328125 0.734375q-0.6484375 0.734375 -0.6484375 2.234375zm7.276108 6.875l0 -10.765625l1.203125 0l0 1.015625q0.421875 -0.59375 0.9609375 -0.890625q0.5390625 -0.296875 1.3046875 -0.296875q0.984375 0 1.75 0.515625q0.765625 0.515625 1.1484375 1.4453125q0.3828125 0.9296875 0.3828125 2.0390625q0 1.203125 -0.421875 2.15625q-0.421875 0.953125 -1.2421875 1.4609375q-0.8203125 0.5078125 -1.7265625 0.5078125q-0.65625 0 -1.1796875 -0.2734375q-0.5234375 -0.2734375 -0.8515625 -0.7109375l0 3.796875l-1.328125 0zm1.203125 -6.828125q0 1.5 0.609375 2.21875q0.609375 0.71875 1.46875 0.71875q0.875 0 1.5 -0.7421875q0.625 -0.7421875 0.625 -2.3046875q0 -1.484375 -0.609375 -2.2265625q-0.609375 -0.7421875 -1.453125 -0.7421875q-0.84375 0 -1.4921875 0.7890625q-0.6484375 0.7890625 -0.6484375 2.2890625zm6.947983 6.828125l0 -10.765625l1.203125 0l0 1.015625q0.421875 -0.59375 0.9609375 -0.890625q0.5390625 -0.296875 1.3046875 -0.296875q0.984375 0 1.75 0.515625q0.765625 0.515625 1.1484375 1.4453125q0.3828125 0.9296875 0.3828125 2.0390625q0 1.203125 -0.421875 2.15625q-0.421875 0.953125 -1.2421875 1.4609375q-0.8203125 0.5078125 -1.7265625 0.5078125q-0.65625 0 -1.1796875 -0.2734375q-0.5234375 -0.2734375 -0.8515625 -0.7109375l0 3.796875l-1.328125 0zm1.203125 -6.828125q0 1.5 0.609375 2.21875q0.609375 0.71875 1.46875 0.71875q0.875 0 1.5 -0.7421875q0.625 -0.7421875 0.625 -2.3046875q0 -1.484375 -0.609375 -2.2265625q-0.609375 -0.7421875 -1.453125 -0.7421875q-0.84375 0 -1.4921875 0.7890625q-0.6484375 0.7890625 -0.6484375 2.2890625zm12.276108 1.34375l1.359375 0.15625q-0.3125 1.203125 -1.1875 1.859375q-0.875 0.65625 -2.234375 0.65625q-1.703125 0 -2.703125 -1.046875q-1.0 -1.046875 -1.0 -2.953125q0 -1.953125 1.015625 -3.0390625q1.015625 -1.0859375 2.625 -1.0859375q1.5625 0 2.546875 1.0625q0.984375 1.0625 0.984375 2.984375q0 0.125 0 0.359375l-5.8125 0q0.078125 1.28125 0.7265625 1.9609375q0.6484375 0.6796875 1.6328125 0.6796875q0.71875 0 1.234375 -0.3828125q0.515625 -0.3828125 0.8125 -1.2109375zm-4.328125 -2.140625l4.34375 0q-0.09375 -0.984375 -0.5 -1.46875q-0.625 -0.765625 -1.625 -0.765625q-0.921875 0 -1.5390625 0.609375q-0.6171875 0.609375 -0.6796875 1.625zm12.197983 4.640625l0 -0.984375q-0.734375 1.15625 -2.171875 1.15625q-0.921875 0 -1.703125 -0.5078125q-0.78125 -0.5078125 -1.2109375 -1.4296875q-0.4296875 -0.921875 -0.4296875 -2.109375q0 -1.171875 0.390625 -2.1171875q0.390625 -0.9453125 1.1640625 -1.453125q0.7734375 -0.5078125 1.7265625 -0.5078125q0.703125 0 1.2578125 0.296875q0.5546875 0.296875 0.8984375 0.765625l0 -3.84375l1.3125 0l0 10.734375l-1.234375 0zm-4.15625 -3.875q0 1.484375 0.625 2.2265625q0.625 0.7421875 1.484375 0.7421875q0.859375 0 1.46875 -0.7109375q0.609375 -0.7109375 0.609375 -2.1484375q0 -1.609375 -0.6171875 -2.3515625q-0.6171875 -0.7421875 -1.5234375 -0.7421875q-0.875 0 -1.4609375 0.71875q-0.5859375 0.71875 -0.5859375 2.265625z" fill-rule="nonzero"></path><path stroke="#000000" stroke-width="2.0" stroke-linejoin="round" stroke-linecap="butt" d="m769.0453 358.96747l21.768555 10.748993" fill-rule="evenodd"></path><path fill="#000000" stroke="#000000" stroke-width="2.0" stroke-linecap="butt" d="m789.3512 372.6785l9.600769 1.056427l-6.675537 -6.9804993z" fill-rule="evenodd"></path><path fill="#000000" d="m434.9247 214.71875l-0.328125 -1.765625l0 -1.53125l1.296875 0l0 1.53125l-0.28125 1.765625l-0.6875 0zm2.09375 0l-0.3125 -1.765625l0 -1.53125l1.296875 0l0 1.53125l-0.296875 1.765625l-0.6875 0zm2.7156067 6.015625l0 -9.3125l3.515625 0q0.921875 0 1.40625 0.09375q0.6875 0.109375 1.15625 0.4296875q0.46875 0.3203125 0.75 0.8984375q0.28125 0.578125 0.28125 1.28125q0 1.1875 -0.7578125 2.0078125q-0.7578125 0.8203125 -2.7265625 0.8203125l-2.390625 0l0 3.78125l-1.234375 0zm1.234375 -4.875l2.40625 0q1.1875 0 1.6953125 -0.4453125q0.5078125 -0.4453125 0.5078125 -1.2578125q0 -0.578125 -0.296875 -0.9921875q-0.296875 -0.4140625 -0.78125 -0.5546875q-0.3125 -0.078125 -1.15625 -0.078125l-2.375 0l0 3.328125zm11.9053955 4.046875q-0.625 0.53125 -1.2109375 0.7578125q-0.5859375 0.2265625 -1.2578125 0.2265625q-1.125 0 -1.71875 -0.546875q-0.59375 -0.546875 -0.59375 -1.390625q0 -0.484375 0.2265625 -0.8984375q0.2265625 -0.4140625 0.59375 -0.6640625q0.3671875 -0.25 0.8203125 -0.375q0.328125 -0.078125 1.015625 -0.171875q1.375 -0.15625 2.03125 -0.390625q0.015625 -0.234375 0.015625 -0.296875q0 -0.703125 -0.328125 -0.984375q-0.4375 -0.390625 -1.296875 -0.390625q-0.8125 0 -1.1953125 0.28125q-0.3828125 0.28125 -0.5703125 1.0l-1.109375 -0.140625q0.140625 -0.71875 0.4921875 -1.1640625q0.3515625 -0.4453125 1.015625 -0.6796875q0.6640625 -0.234375 1.5234375 -0.234375q0.875 0 1.4140625 0.203125q0.5390625 0.203125 0.7890625 0.5078125q0.25 0.3046875 0.359375 0.7734375q0.046875 0.296875 0.046875 1.0625l0 1.515625q0 1.59375 0.078125 2.015625q0.078125 0.421875 0.28125 0.8125l-1.1875 0q-0.171875 -0.359375 -0.234375 -0.828125zm-0.09375 -2.5625q-0.625 0.265625 -1.859375 0.4375q-0.703125 0.109375 -1.0 0.234375q-0.296875 0.125 -0.453125 0.3671875q-0.15625 0.2421875 -0.15625 0.5390625q0 0.453125 0.34375 0.7578125q0.34375 0.3046875 1.015625 0.3046875q0.65625 0 1.171875 -0.2890625q0.515625 -0.2890625 0.765625 -0.7890625q0.171875 -0.375 0.171875 -1.140625l0 -0.421875zm7.5374756 3.390625l0 -0.984375q-0.796875 1.140625 -2.140625 1.140625q-0.59375 0 -1.1171875 -0.234375q-0.5234375 -0.234375 -0.7734375 -0.578125q-0.25 -0.34375 -0.34375 -0.84375q-0.078125 -0.328125 -0.078125 -1.0625l0 -4.171875l1.140625 0l0 3.734375q0 0.890625 0.078125 1.203125q0.109375 0.453125 0.453125 0.7109375q0.34375 0.2578125 0.859375 0.2578125q0.515625 0 0.96875 -0.265625q0.453125 -0.265625 0.640625 -0.71875q0.1875 -0.453125 0.1875 -1.3125l0 -3.609375l1.140625 0l0 6.734375l-1.015625 0zm2.5374756 -2.015625l1.125 -0.171875q0.09375 0.671875 0.53125 1.0390625q0.4375 0.3671875 1.21875 0.3671875q0.78125 0 1.1640625 -0.3203125q0.3828125 -0.3203125 0.3828125 -0.7578125q0 -0.390625 -0.34375 -0.609375q-0.234375 -0.15625 -1.171875 -0.390625q-1.25 -0.3125 -1.734375 -0.546875q-0.484375 -0.234375 -0.734375 -0.640625q-0.25 -0.40625 -0.25 -0.90625q0 -0.453125 0.203125 -0.8359375q0.203125 -0.3828125 0.5625 -0.6328125q0.265625 -0.203125 0.7265625 -0.3359375q0.4609375 -0.1328125 0.9921875 -0.1328125q0.78125 0 1.3828125 0.2265625q0.6015625 0.2265625 0.890625 0.6171875q0.2890625 0.390625 0.3984375 1.046875l-1.125 0.15625q-0.078125 -0.53125 -0.4375 -0.8203125q-0.359375 -0.2890625 -1.03125 -0.2890625q-0.78125 0 -1.125 0.2578125q-0.34375 0.2578125 -0.34375 0.6171875q0 0.21875 0.140625 0.390625q0.140625 0.1875 0.4375 0.3125q0.171875 0.0625 1.015625 0.28125q1.21875 0.328125 1.6953125 0.53125q0.4765625 0.203125 0.75 0.6015625q0.2734375 0.3984375 0.2734375 0.9765625q0 0.578125 -0.3359375 1.078125q-0.3359375 0.5 -0.9609375 0.78125q-0.625 0.28125 -1.421875 0.28125q-1.3125 0 -2.0 -0.546875q-0.6875 -0.546875 -0.875 -1.625zm11.7265625 -0.15625l1.1875 0.140625q-0.28125 1.046875 -1.0390625 1.6171875q-0.7578125 0.5703125 -1.9296875 0.5703125q-1.484375 0 -2.3515625 -0.9140625q-0.8671875 -0.9140625 -0.8671875 -2.5546875q0 -1.703125 0.8828125 -2.640625q0.8828125 -0.9375 2.2734375 -0.9375q1.359375 0 2.2109375 0.921875q0.8515625 0.921875 0.8515625 2.578125q0 0.109375 0 0.3125l-5.03125 0q0.0625 1.109375 0.625 1.703125q0.5625 0.59375 1.40625 0.59375q0.640625 0 1.0859375 -0.3359375q0.4453125 -0.3359375 0.6953125 -1.0546875zm-3.75 -1.84375l3.765625 0q-0.078125 -0.859375 -0.4375 -1.28125q-0.546875 -0.65625 -1.40625 -0.65625q-0.796875 0 -1.328125 0.5234375q-0.53125 0.5234375 -0.59375 1.4140625zm10.928101 4.015625l0 -0.84375q-0.640625 1.0 -1.890625 1.0q-0.796875 0 -1.4765625 -0.4453125q-0.6796875 -0.4453125 -1.0546875 -1.2421875q-0.375 -0.796875 -0.375 -1.828125q0 -1.015625 0.34375 -1.8359375q0.34375 -0.8203125 1.015625 -1.2578125q0.671875 -0.4375 1.5 -0.4375q0.609375 0 1.0859375 0.2578125q0.4765625 0.2578125 0.7734375 0.6640625l0 -3.34375l1.140625 0l0 9.3125l-1.0625 0zm-3.609375 -3.359375q0 1.296875 0.5390625 1.9375q0.5390625 0.640625 1.2890625 0.640625q0.75 0 1.2734375 -0.6171875q0.5234375 -0.6171875 0.5234375 -1.8671875q0 -1.390625 -0.53125 -2.0390625q-0.53125 -0.6484375 -1.3125 -0.6484375q-0.765625 0 -1.2734375 0.625q-0.5078125 0.625 -0.5078125 1.96875zm6.7093506 -2.65625l-0.328125 -1.765625l0 -1.53125l1.296875 0l0 1.53125l-0.28125 1.765625l-0.6875 0zm2.09375 0l-0.3125 -1.765625l0 -1.53125l1.296875 0l0 1.53125l-0.296875 1.765625l-0.6875 0zm6.277954 -1.96875l0 -1.328125l1.140625 0l0 1.328125l-1.140625 0zm0 7.984375l0 -6.734375l1.140625 0l0 6.734375l-1.140625 0zm2.507965 -2.015625l1.125 -0.171875q0.09375 0.671875 0.53125 1.0390625q0.4375 0.3671875 1.21875 0.3671875q0.78125 0 1.1640625 -0.3203125q0.3828125 -0.3203125 0.3828125 -0.7578125q0 -0.390625 -0.34375 -0.609375q-0.234375 -0.15625 -1.171875 -0.390625q-1.25 -0.3125 -1.734375 -0.546875q-0.484375 -0.234375 -0.734375 -0.640625q-0.25 -0.40625 -0.25 -0.90625q0 -0.453125 0.203125 -0.8359375q0.203125 -0.3828125 0.5625 -0.6328125q0.265625 -0.203125 0.7265625 -0.3359375q0.4609375 -0.1328125 0.9921875 -0.1328125q0.78125 0 1.3828125 0.2265625q0.6015625 0.2265625 0.890625 0.6171875q0.2890625 0.390625 0.3984375 1.046875l-1.125 0.15625q-0.078125 -0.53125 -0.4375 -0.8203125q-0.359375 -0.2890625 -1.03125 -0.2890625q-0.78125 0 -1.125 0.2578125q-0.34375 0.2578125 -0.34375 0.6171875q0 0.21875 0.140625 0.390625q0.140625 0.1875 0.4375 0.3125q0.171875 0.0625 1.015625 0.28125q1.21875 0.328125 1.6953125 0.53125q0.4765625 0.203125 0.75 0.6015625q0.2734375 0.3984375 0.2734375 0.9765625q0 0.578125 -0.3359375 1.078125q-0.3359375 0.5 -0.9609375 0.78125q-0.625 0.28125 -1.421875 0.28125q-1.3125 0 -2.0 -0.546875q-0.6875 -0.546875 -0.875 -1.625z" fill-rule="nonzero"></path><path fill="#000000" d="m419.84058 233.89062l1.1875 0.140625q-0.28125 1.046875 -1.0390625 1.6171875q-0.7578125 0.5703125 -1.9296875 0.5703125q-1.484375 0 -2.3515625 -0.9140625q-0.8671875 -0.9140625 -0.8671875 -2.5546875q0 -1.703125 0.8828125 -2.640625q0.8828125 -0.9375 2.2734375 -0.9375q1.359375 0 2.2109375 0.921875q0.8515625 0.921875 0.8515625 2.578125q0 0.109375 0 0.3125l-5.03125 0q0.0625 1.109375 0.625 1.703125q0.5625 0.59375 1.40625 0.59375q0.640625 0 1.0859375 -0.3359375q0.4453125 -0.3359375 0.6953125 -1.0546875zm-3.75 -1.84375l3.765625 0q-0.078125 -0.859375 -0.4375 -1.28125q-0.546875 -0.65625 -1.40625 -0.65625q-0.796875 0 -1.328125 0.5234375q-0.53125 0.5234375 -0.59375 1.4140625zm6.0999756 2.0l1.125 -0.171875q0.09375 0.671875 0.53125 1.0390625q0.4375 0.3671875 1.21875 0.3671875q0.78125 0 1.1640625 -0.3203125q0.3828125 -0.3203125 0.3828125 -0.7578125q0 -0.390625 -0.34375 -0.609375q-0.234375 -0.15625 -1.171875 -0.390625q-1.25 -0.3125 -1.734375 -0.546875q-0.484375 -0.234375 -0.734375 -0.640625q-0.25 -0.40625 -0.25 -0.90625q0 -0.453125 0.203125 -0.8359375q0.203125 -0.3828125 0.5625 -0.6328125q0.265625 -0.203125 0.7265625 -0.3359375q0.4609375 -0.1328125 0.9921875 -0.1328125q0.78125 0 1.3828125 0.2265625q0.6015625 0.2265625 0.890625 0.6171875q0.2890625 0.390625 0.3984375 1.046875l-1.125 0.15625q-0.078125 -0.53125 -0.4375 -0.8203125q-0.359375 -0.2890625 -1.03125 -0.2890625q-0.78125 0 -1.125 0.2578125q-0.34375 0.2578125 -0.34375 0.6171875q0 0.21875 0.140625 0.390625q0.140625 0.1875 0.4375 0.3125q0.171875 0.0625 1.015625 0.28125q1.21875 0.328125 1.6953125 0.53125q0.4765625 0.203125 0.75 0.6015625q0.2734375 0.3984375 0.2734375 0.9765625q0 0.578125 -0.3359375 1.078125q-0.3359375 0.5 -0.9609375 0.78125q-0.625 0.28125 -1.421875 0.28125q-1.3125 0 -2.0 -0.546875q-0.6875 -0.546875 -0.875 -1.625zm6.6640625 0l1.125 -0.171875q0.09375 0.671875 0.53125 1.0390625q0.4375 0.3671875 1.21875 0.3671875q0.78125 0 1.1640625 -0.3203125q0.3828125 -0.3203125 0.3828125 -0.7578125q0 -0.390625 -0.34375 -0.609375q-0.234375 -0.15625 -1.171875 -0.390625q-1.25 -0.3125 -1.734375 -0.546875q-0.484375 -0.234375 -0.734375 -0.640625q-0.25 -0.40625 -0.25 -0.90625q0 -0.453125 0.203125 -0.8359375q0.203125 -0.3828125 0.5625 -0.6328125q0.265625 -0.203125 0.7265625 -0.3359375q0.4609375 -0.1328125 0.9921875 -0.1328125q0.78125 0 1.3828125 0.2265625q0.6015625 0.2265625 0.890625 0.6171875q0.2890625 0.390625 0.3984375 1.046875l-1.125 0.15625q-0.078125 -0.53125 -0.4375 -0.8203125q-0.359375 -0.2890625 -1.03125 -0.2890625q-0.78125 0 -1.125 0.2578125q-0.34375 0.2578125 -0.34375 0.6171875q0 0.21875 0.140625 0.390625q0.140625 0.1875 0.4375 0.3125q0.171875 0.0625 1.015625 0.28125q1.21875 0.328125 1.6953125 0.53125q0.4765625 0.203125 0.75 0.6015625q0.2734375 0.3984375 0.2734375 0.9765625q0 0.578125 -0.3359375 1.078125q-0.3359375 0.5 -0.9609375 0.78125q-0.625 0.28125 -1.421875 0.28125q-1.3125 0 -2.0 -0.546875q-0.6875 -0.546875 -0.875 -1.625zm11.7265625 -0.15625l1.1875 0.140625q-0.28125 1.046875 -1.0390625 1.6171875q-0.7578125 0.5703125 -1.9296875 0.5703125q-1.484375 0 -2.3515625 -0.9140625q-0.8671875 -0.9140625 -0.8671875 -2.5546875q0 -1.703125 0.8828125 -2.640625q0.8828125 -0.9375 2.2734375 -0.9375q1.359375 0 2.2109375 0.921875q0.8515625 0.921875 0.8515625 2.578125q0 0.109375 0 0.3125l-5.03125 0q0.0625 1.109375 0.625 1.703125q0.5625 0.59375 1.40625 0.59375q0.640625 0 1.0859375 -0.3359375q0.4453125 -0.3359375 0.6953125 -1.0546875zm-3.75 -1.84375l3.765625 0q-0.078125 -0.859375 -0.4375 -1.28125q-0.546875 -0.65625 -1.40625 -0.65625q-0.796875 0 -1.328125 0.5234375q-0.53125 0.5234375 -0.59375 1.4140625zm6.5531006 4.015625l0 -6.734375l1.03125 0l0 0.953125q0.734375 -1.109375 2.140625 -1.109375q0.609375 0 1.1171875 0.21875q0.5078125 0.21875 0.765625 0.5703125q0.2578125 0.3515625 0.3515625 0.8515625q0.0625 0.3125 0.0625 1.109375l0 4.140625l-1.140625 0l0 -4.09375q0 -0.703125 -0.1328125 -1.046875q-0.1328125 -0.34375 -0.46875 -0.5546875q-0.3359375 -0.2109375 -0.7890625 -0.2109375q-0.734375 0 -1.265625 0.4609375q-0.53125 0.4609375 -0.53125 1.7578125l0 3.6875l-1.140625 0zm9.912476 -1.015625l0.15625 1.0q-0.484375 0.109375 -0.859375 0.109375q-0.625 0 -0.96875 -0.203125q-0.34375 -0.203125 -0.484375 -0.5234375q-0.140625 -0.3203125 -0.140625 -1.3359375l0 -3.890625l-0.828125 0l0 -0.875l0.828125 0l0 -1.671875l1.140625 -0.6875l0 2.359375l1.15625 0l0 0.875l-1.15625 0l0 3.953125q0 0.484375 0.0625 0.625q0.0625 0.140625 0.1953125 0.21875q0.1328125 0.078125 0.3828125 0.078125q0.203125 0 0.515625 -0.03125zm1.2029724 -6.96875l0 -1.328125l1.140625 0l0 1.328125l-1.140625 0zm0 7.984375l0 -6.734375l1.140625 0l0 6.734375l-1.140625 0zm7.351715 -0.828125q-0.625 0.53125 -1.2109375 0.7578125q-0.5859375 0.2265625 -1.2578125 0.2265625q-1.125 0 -1.71875 -0.546875q-0.59375 -0.546875 -0.59375 -1.390625q0 -0.484375 0.2265625 -0.8984375q0.2265625 -0.4140625 0.59375 -0.6640625q0.3671875 -0.25 0.8203125 -0.375q0.328125 -0.078125 1.015625 -0.171875q1.375 -0.15625 2.03125 -0.390625q0.015625 -0.234375 0.015625 -0.296875q0 -0.703125 -0.328125 -0.984375q-0.4375 -0.390625 -1.296875 -0.390625q-0.8125 0 -1.1953125 0.28125q-0.3828125 0.28125 -0.5703125 1.0l-1.109375 -0.140625q0.140625 -0.71875 0.4921875 -1.1640625q0.3515625 -0.4453125 1.015625 -0.6796875q0.6640625 -0.234375 1.5234375 -0.234375q0.875 0 1.4140625 0.203125q0.5390625 0.203125 0.7890625 0.5078125q0.25 0.3046875 0.359375 0.7734375q0.046875 0.296875 0.046875 1.0625l0 1.515625q0 1.59375 0.078125 2.015625q0.078125 0.421875 0.28125 0.8125l-1.1875 0q-0.171875 -0.359375 -0.234375 -0.828125zm-0.09375 -2.5625q-0.625 0.265625 -1.859375 0.4375q-0.703125 0.109375 -1.0 0.234375q-0.296875 0.125 -0.453125 0.3671875q-0.15625 0.2421875 -0.15625 0.5390625q0 0.453125 0.34375 0.7578125q0.34375 0.3046875 1.015625 0.3046875q0.65625 0 1.171875 -0.2890625q0.515625 -0.2890625 0.765625 -0.7890625q0.171875 -0.375 0.171875 -1.140625l0 -0.421875zm3.0843506 3.390625l0 -9.3125l1.140625 0l0 9.3125l-1.140625 0zm2.96109 0l0 -9.3125l1.140625 0l0 9.3125l-1.140625 0zm2.945465 2.59375l-0.140625 -1.0625q0.375 0.09375 0.65625 0.09375q0.390625 0 0.6171875 -0.125q0.2265625 -0.125 0.3671875 -0.359375q0.109375 -0.171875 0.359375 -0.84375q0.03125 -0.09375 0.09375 -0.28125l-2.5625 -6.75l1.234375 0l1.40625 3.890625q0.265625 0.75 0.484375 1.5625q0.203125 -0.78125 0.46875 -1.53125l1.453125 -3.921875l1.140625 0l-2.5625 6.84375q-0.421875 1.109375 -0.640625 1.53125q-0.3125 0.5625 -0.703125 0.828125q-0.390625 0.265625 -0.9375 0.265625q-0.328125 0 -0.734375 -0.140625zm10.47644 -8.609375l-0.328125 -1.765625l0 -1.53125l1.296875 0l0 1.53125l-0.28125 1.765625l-0.6875 0zm2.09375 0l-0.3125 -1.765625l0 -1.53125l1.296875 0l0 1.53125l-0.296875 1.765625l-0.6875 0zm2.7155762 6.015625l0 -9.3125l3.203125 0q1.09375 0 1.65625 0.140625q0.8125 0.1875 1.375 0.671875q0.734375 0.609375 1.1015625 1.578125q0.3671875 0.96875 0.3671875 2.21875q0 1.0625 -0.25 1.8828125q-0.25 0.8203125 -0.640625 1.3515625q-0.390625 0.53125 -0.8515625 0.84375q-0.4609375 0.3125 -1.109375 0.46875q-0.6484375 0.15625 -1.4921875 0.15625l-3.359375 0zm1.234375 -1.09375l1.984375 0q0.921875 0 1.4453125 -0.171875q0.5234375 -0.171875 0.8359375 -0.484375q0.4375 -0.4375 0.6796875 -1.1796875q0.2421875 -0.7421875 0.2421875 -1.7890625q0 -1.46875 -0.4765625 -2.25q-0.4765625 -0.78125 -1.1640625 -1.046875q-0.5 -0.1875 -1.59375 -0.1875l-1.953125 0l0 7.109375zm12.859558 -1.078125l1.1875 0.140625q-0.28125 1.046875 -1.0390625 1.6171875q-0.7578125 0.5703125 -1.9296875 0.5703125q-1.484375 0 -2.3515625 -0.9140625q-0.8671875 -0.9140625 -0.8671875 -2.5546875q0 -1.703125 0.8828125 -2.640625q0.8828125 -0.9375 2.2734375 -0.9375q1.359375 0 2.2109375 0.921875q0.8515625 0.921875 0.8515625 2.578125q0 0.109375 0 0.3125l-5.03125 0q0.0625 1.109375 0.625 1.703125q0.5625 0.59375 1.40625 0.59375q0.640625 0 1.0859375 -0.3359375q0.4453125 -0.3359375 0.6953125 -1.0546875zm-3.75 -1.84375l3.765625 0q-0.078125 -0.859375 -0.4375 -1.28125q-0.546875 -0.65625 -1.40625 -0.65625q-0.796875 0 -1.328125 0.5234375q-0.53125 0.5234375 -0.59375 1.4140625zm10.943726 3.1875q-0.625 0.53125 -1.2109375 0.7578125q-0.5859375 0.2265625 -1.2578125 0.2265625q-1.125 0 -1.71875 -0.546875q-0.59375 -0.546875 -0.59375 -1.390625q0 -0.484375 0.2265625 -0.8984375q0.2265625 -0.4140625 0.59375 -0.6640625q0.3671875 -0.25 0.8203125 -0.375q0.328125 -0.078125 1.015625 -0.171875q1.375 -0.15625 2.03125 -0.390625q0.015625 -0.234375 0.015625 -0.296875q0 -0.703125 -0.328125 -0.984375q-0.4375 -0.390625 -1.296875 -0.390625q-0.8125 0 -1.1953125 0.28125q-0.3828125 0.28125 -0.5703125 1.0l-1.109375 -0.140625q0.140625 -0.71875 0.4921875 -1.1640625q0.3515625 -0.4453125 1.015625 -0.6796875q0.6640625 -0.234375 1.5234375 -0.234375q0.875 0 1.4140625 0.203125q0.5390625 0.203125 0.7890625 0.5078125q0.25 0.3046875 0.359375 0.7734375q0.046875 0.296875 0.046875 1.0625l0 1.515625q0 1.59375 0.078125 2.015625q0.078125 0.421875 0.28125 0.8125l-1.1875 0q-0.171875 -0.359375 -0.234375 -0.828125zm-0.09375 -2.5625q-0.625 0.265625 -1.859375 0.4375q-0.703125 0.109375 -1.0 0.234375q-0.296875 0.125 -0.453125 0.3671875q-0.15625 0.2421875 -0.15625 0.5390625q0 0.453125 0.34375 0.7578125q0.34375 0.3046875 1.015625 0.3046875q0.65625 0 1.171875 -0.2890625q0.515625 -0.2890625 0.765625 -0.7890625q0.171875 -0.375 0.171875 -1.140625l0 -0.421875zm7.4906006 3.390625l0 -0.84375q-0.640625 1.0 -1.890625 1.0q-0.796875 0 -1.4765625 -0.4453125q-0.6796875 -0.4453125 -1.0546875 -1.2421875q-0.375 -0.796875 -0.375 -1.828125q0 -1.015625 0.34375 -1.8359375q0.34375 -0.8203125 1.015625 -1.2578125q0.671875 -0.4375 1.5 -0.4375q0.609375 0 1.0859375 0.2578125q0.4765625 0.2578125 0.7734375 0.6640625l0 -3.34375l1.140625 0l0 9.3125l-1.0625 0zm-3.609375 -3.359375q0 1.296875 0.5390625 1.9375q0.5390625 0.640625 1.2890625 0.640625q0.75 0 1.2734375 -0.6171875q0.5234375 -0.6171875 0.5234375 -1.8671875q0 -1.390625 -0.53125 -2.0390625q-0.53125 -0.6484375 -1.3125 -0.6484375q-0.765625 0 -1.2734375 0.625q-0.5078125 0.625 -0.5078125 1.96875zm6.7093506 -2.65625l-0.328125 -1.765625l0 -1.53125l1.296875 0l0 1.53125l-0.28125 1.765625l-0.6875 0zm2.09375 0l-0.3125 -1.765625l0 -1.53125l1.296875 0l0 1.53125l-0.296875 1.765625l-0.6875 0z" fill-rule="nonzero"></path></svg>

